<?xml version="1.0" standalone="no"?>
<!DOCTYPE svg PUBLIC "-//W3C//DTD SVG 20010904//EN"
 "http://www.w3.org/TR/2001/REC-SVG-20010904/DTD/svg10.dtd">
<svg version="1.0" xmlns="http://www.w3.org/2000/svg"
 width="384.000000pt" height="384.000000pt" viewBox="0 0 384.000000 384.000000"
 preserveAspectRatio="xMidYMid meet">
<g transform="translate(0.000000,384.000000) scale(0.100000,-0.100000)"
fill="#000000" stroke="none">
<path d="M1730 3039 c-36 -4 -157 -13 -270 -19 -296 -15 -429 -41 -530 -101
-8 -5 -22 -12 -30 -16 -8 -4 -40 -24 -70 -46 -125 -90 -190 -171 -272 -339
-30 -60 -48 -88 -60 -88 -25 0 -22 21 7 74 36 64 33 82 -25 138 l-50 48 -138
0 c-95 0 -143 -4 -155 -12 -22 -17 -87 -147 -87 -174 0 -13 20 -40 50 -68 l49
-46 110 0 c101 0 111 -2 121 -21 17 -31 7 -45 -57 -76 -72 -35 -75 -38 -151
-152 l-62 -92 0 -411 0 -411 30 -54 c26 -45 30 -63 30 -128 0 -105 26 -153
107 -198 46 -25 340 -25 386 0 43 24 77 54 77 68 0 6 10 21 23 32 19 18 28 20
72 13 75 -13 134 -12 163 4 57 29 150 66 169 66 7 0 15 -11 19 -25 14 -57 -10
-55 724 -55 595 0 678 2 698 16 12 8 22 21 22 28 0 28 28 39 62 26 42 -16 95
-39 132 -58 27 -14 74 -13 200 1 12 1 30 -14 51 -43 17 -25 49 -55 71 -67 36
-21 52 -23 202 -23 137 0 169 3 195 17 81 45 107 93 107 198 0 65 4 83 30 128
l30 54 0 411 0 412 -45 66 c-25 36 -45 69 -45 73 0 15 -73 80 -109 98 -20 10
-48 27 -63 37 -26 17 -27 19 -11 42 15 23 20 24 125 24 l109 0 49 46 c30 28
50 55 50 68 0 27 -65 157 -87 174 -12 8 -60 12 -155 12 l-139 0 -49 -46 c-58
-54 -62 -75 -25 -140 29 -53 32 -74 8 -74 -13 0 -31 28 -61 88 -68 140 -123
215 -214 294 -66 57 -159 118 -181 118 -7 0 -17 4 -22 9 -37 36 -213 67 -464
81 -97 6 -216 15 -266 20 -104 11 -291 11 -385 -1z m345 -119 c50 -6 177 -14
283 -20 206 -10 296 -22 377 -47 133 -41 249 -123 329 -233 42 -56 126 -217
118 -224 -7 -8 -2537 -8 -2544 0 -7 7 75 167 109 214 86 117 205 202 338 243
81 25 171 37 382 48 109 6 230 14 268 18 102 12 237 12 340 1z m-1690 -360 c3
-5 1 -19 -5 -30 -9 -18 -21 -20 -95 -20 -46 0 -87 4 -90 10 -3 5 -1 19 5 30 9
18 21 20 95 20 46 0 87 -4 90 -10z m3235 -10 c6 -11 8 -25 5 -30 -3 -6 -44
-10 -90 -10 -74 0 -86 2 -95 20 -6 11 -8 25 -5 30 3 6 44 10 90 10 74 0 86 -2
95 -20z m-496 -289 c3 -4 -71 -84 -164 -177 -194 -193 -171 -180 -430 -251
-30 -9 -73 -22 -95 -29 -25 -9 -85 -14 -158 -14 -111 0 -120 2 -174 30 -54 29
-60 30 -193 30 -133 0 -139 -1 -193 -30 -54 -28 -63 -30 -174 -30 -73 0 -133
5 -158 14 -22 7 -67 21 -100 31 -33 10 -80 23 -105 31 -25 7 -65 18 -90 24
-49 13 -52 16 -262 240 -65 68 -118 128 -118 132 0 11 2407 10 2414 -1z
m-2434 -162 c275 -291 287 -302 360 -322 36 -10 85 -24 110 -31 112 -33 168
-49 209 -62 29 -9 93 -14 181 -14 132 0 138 1 195 30 55 28 66 30 167 30 101
0 112 -2 165 -30 54 -29 59 -30 196 -30 100 0 154 5 191 16 28 9 71 22 96 29
134 38 168 48 195 57 17 5 41 12 55 15 15 3 114 94 253 232 125 124 232 228
237 229 6 2 48 -14 94 -37 69 -33 91 -50 125 -95 22 -31 41 -59 41 -64 0 -5 7
-15 15 -22 12 -10 15 -36 15 -114 l0 -101 -132 -132 -133 -131 -80 -15 c-44
-9 -127 -23 -185 -32 -207 -31 -286 -44 -355 -57 -50 -9 -264 -13 -765 -16
-608 -3 -707 -1 -790 13 -52 9 -138 23 -190 31 -52 8 -132 21 -176 29 -45 8
-98 15 -117 15 -20 0 -66 7 -104 16 -68 15 -68 15 -200 147 l-133 132 0 101
c0 78 3 104 15 114 8 7 15 17 15 22 0 5 18 33 41 63 34 45 55 61 132 98 61 30
97 42 107 37 8 -5 76 -72 150 -151z m-364 -550 c44 -44 82 -86 86 -94 5 -8
-17 -45 -57 -98 -52 -68 -65 -94 -65 -122 0 -40 -14 -45 -41 -12 -16 20 -18
41 -19 215 0 105 4 192 9 192 5 0 44 -36 87 -81z m3264 -117 c-1 -168 -3 -189
-19 -209 -27 -33 -41 -28 -41 13 0 27 -13 52 -58 112 -32 42 -62 83 -66 90 -9
15 161 195 175 186 5 -3 9 -89 9 -192z m-2820 -47 c47 -8 132 -21 190 -30 58
-9 141 -22 185 -30 66 -12 204 -15 775 -15 417 1 713 5 740 11 25 5 74 14 110
18 78 11 186 28 295 46 115 20 198 27 211 18 5 -5 38 -45 72 -90 57 -75 62
-86 62 -131 0 -33 -5 -52 -14 -55 -7 -3 -67 -11 -132 -17 -66 -6 -177 -18
-248 -27 -146 -17 -117 -24 -339 76 -37 17 -71 31 -76 31 -5 0 -24 8 -43 17
-18 9 -41 20 -51 25 -22 11 -57 -15 -57 -42 0 -9 -6 -22 -12 -29 -11 -10 -8
-16 12 -32 14 -11 37 -22 53 -25 15 -4 27 -13 27 -20 0 -12 -101 -14 -620 -14
-519 0 -620 2 -620 14 0 7 12 16 28 20 15 3 38 14 52 25 20 16 23 22 13 32 -7
7 -13 20 -13 29 0 9 -9 25 -19 34 -18 17 -22 16 -78 -9 -32 -14 -71 -32 -88
-39 -16 -7 -48 -21 -70 -30 -192 -85 -169 -81 -317 -63 -73 9 -184 22 -247 28
-63 6 -121 13 -128 16 -8 3 -13 23 -13 55 0 45 5 56 62 131 34 45 67 85 72 90
13 9 112 1 226 -18z m-442 -364 c9 -5 62 -15 117 -21 159 -18 175 -21 175 -36
0 -11 -28 -14 -142 -14 -132 0 -143 2 -165 22 -23 22 -31 58 -13 58 6 0 18 -4
28 -9z m3202 -8 c0 -9 -10 -27 -22 -40 -21 -22 -28 -23 -165 -23 -117 0 -143
3 -143 14 0 10 17 16 58 21 31 3 79 10 105 16 26 5 65 9 87 9 21 0 42 5 45 10
10 16 35 11 35 -7z"/>
<path d="M2050 2812 c-28 -20 -95 -68 -148 -107 -54 -38 -121 -86 -150 -105
-28 -19 -52 -39 -52 -45 0 -5 16 -28 34 -50 26 -30 38 -38 49 -30 8 6 34 23
58 40 24 16 87 61 141 100 53 38 119 86 147 105 28 19 51 39 51 43 0 13 -49
75 -64 80 -8 3 -37 -11 -66 -31z"/>
<path d="M368 2103 c-11 -13 -18 -54 -24 -143 -11 -185 -12 -180 32 -218 22
-19 48 -38 59 -43 11 -5 34 -18 50 -29 17 -11 39 -24 50 -30 11 -6 35 -20 54
-31 42 -25 63 -20 124 26 25 19 49 35 52 35 10 0 87 61 107 85 10 11 17 27 18
36 0 18 -55 77 -85 90 -21 9 -57 31 -65 39 -12 12 -70 50 -76 50 -3 0 -23 14
-44 30 -21 17 -40 30 -43 30 -3 0 -36 20 -74 45 -73 48 -111 56 -135 28z m151
-177 c29 -25 152 -106 161 -106 13 0 32 -39 25 -50 -3 -6 -12 -10 -19 -10 -8
0 -19 -7 -26 -15 -20 -24 -40 -18 -122 35 l-78 50 0 48 c0 27 3 52 7 55 11 11
35 8 52 -7z"/>
<path d="M3342 2090 c-23 -16 -44 -30 -46 -30 -3 0 -34 -20 -70 -45 -37 -25
-69 -45 -72 -45 -3 0 -23 -13 -44 -30 -21 -16 -40 -30 -44 -30 -10 0 -100 -65
-118 -85 -36 -41 -18 -67 98 -150 122 -85 132 -89 174 -70 19 8 49 24 65 35
17 11 39 25 50 30 58 31 74 42 109 72 44 38 43 33 32 218 -9 136 -19 160 -66
160 -15 0 -46 -13 -68 -30z m16 -207 l3 -52 -76 -51 c-42 -27 -83 -50 -90 -50
-15 0 -85 39 -85 47 0 11 22 43 30 43 5 0 48 27 97 60 48 33 95 58 103 57 11
-2 16 -17 18 -54z"/>
<path d="M1852 1613 l3 -58 55 0 55 0 0 55 0 55 -58 3 -58 3 3 -58z"/>
</g>
</svg>
