<?xml version="1.0" standalone="no"?>
<!DOCTYPE svg PUBLIC "-//W3C//DTD SVG 20010904//EN"
 "http://www.w3.org/TR/2001/REC-SVG-20010904/DTD/svg10.dtd">
<svg version="1.0" xmlns="http://www.w3.org/2000/svg"
 width="512.000000pt" height="512.000000pt" viewBox="0 0 512.000000 512.000000"
 preserveAspectRatio="xMidYMid meet">
<g transform="translate(0.000000,512.000000) scale(0.100000,-0.100000)"
fill="#000000" stroke="none">
<path d="M2310 4586 l-595 -272 -3 -428 c-2 -402 -3 -428 -20 -421 -9 3 -177
67 -372 140 -195 73 -367 138 -381 143 -24 9 -42 -2 -227 -140 l-202 -150 0
-1349 0 -1349 100 0 100 0 0 -250 0 -250 700 0 700 0 0 500 0 500 800 0 800 0
0 -500 0 -500 250 0 250 0 0 250 0 250 200 0 200 0 0 1349 0 1348 -244 147
c-135 80 -255 146 -268 146 -18 0 -393 -60 -655 -105 l-33 -6 0 410 0 410
-250 200 c-137 111 -251 201 -252 200 -2 0 -271 -123 -598 -273z m-100 -626
l0 -200 -100 0 -100 0 0 200 0 200 100 0 100 0 0 -200z m300 0 l0 -200 -100 0
-100 0 0 200 0 200 100 0 100 0 0 -200z m-300 -500 l0 -200 -100 0 -100 0 0
200 0 200 100 0 100 0 0 -200z m300 0 l0 -200 -100 0 -100 0 0 200 0 200 100
0 100 0 0 -200z m800 -250 l0 -150 -100 0 -100 0 0 150 0 150 100 0 100 0 0
-150z m300 0 l0 -150 -100 0 -100 0 0 150 0 150 100 0 100 0 0 -150z m300 0
l0 -150 -100 0 -100 0 0 150 0 150 100 0 100 0 0 -150z m-2500 -250 l0 -200
-100 0 -100 0 0 200 0 200 100 0 100 0 0 -200z m800 0 l0 -200 -100 0 -100 0
0 200 0 200 100 0 100 0 0 -200z m300 0 l0 -200 -100 0 -100 0 0 200 0 200
100 0 100 0 0 -200z m800 -150 l0 -150 -100 0 -100 0 0 150 0 150 100 0 100 0
0 -150z m300 0 l0 -150 -100 0 -100 0 0 150 0 150 100 0 100 0 0 -150z m300 0
l0 -150 -100 0 -100 0 0 150 0 150 100 0 100 0 0 -150z m-2500 -350 l0 -200
-100 0 -100 0 0 200 0 200 100 0 100 0 0 -200z m800 0 l0 -200 -100 0 -100 0
0 200 0 200 100 0 100 0 0 -200z m300 0 l0 -200 -100 0 -100 0 0 200 0 200
100 0 100 0 0 -200z m800 -50 l0 -150 -100 0 -100 0 0 150 0 150 100 0 100 0
0 -150z m300 0 l0 -150 -100 0 -100 0 0 150 0 150 100 0 100 0 0 -150z m300 0
l0 -150 -100 0 -100 0 0 150 0 150 100 0 100 0 0 -150z m-2500 -450 l0 -200
-100 0 -100 0 0 200 0 200 100 0 100 0 0 -200z m800 0 l0 -200 -100 0 -100 0
0 200 0 200 100 0 100 0 0 -200z m1100 50 l0 -150 -100 0 -100 0 0 150 0 150
100 0 100 0 0 -150z m300 0 l0 -150 -100 0 -100 0 0 150 0 150 100 0 100 0 0
-150z m-300 -400 l0 -150 -100 0 -100 0 0 150 0 150 100 0 100 0 0 -150z
m-1900 -150 l0 -200 -100 0 -100 0 0 200 0 200 100 0 100 0 0 -200z"/>
</g>
</svg>
