<?xml version="1.0" standalone="no"?> <!DOCTYPE svg PUBLIC "-//W3C//DTD SVG 20010904//EN" "http://www.w3.org/TR/2001/REC-SVG-20010904/DTD/svg10.dtd"> <svg version="1.0" xmlns="http://www.w3.org/2000/svg" width="128.000000pt" height="128.000000pt" viewBox="0 0 128.000000 128.000000" preserveAspectRatio="xMidYMid meet"> <g transform="translate(0.000000,128.000000) scale(0.100000,-0.100000)" fill="#000000" stroke="none"> <path d="M168 1202 c-156 -17 -181 -23 -162 -42 7 -7 35 -7 85 0 200 26 531 40 537 22 2 -7 -20 -12 -60 -14 -63 -3 -63 -3 -66 -45 -4 -53 2 -55 158 -51 115 3 115 3 115 48 0 45 0 45 -63 48 -40 2 -62 7 -60 14 6 18 337 4 537 -22 50 -7 78 -7 85 0 5 5 6 13 2 17 -19 20 -238 34 -581 38 -301 3 -399 1 -527 -13z m563 -66 c14 -8 15 -12 4 -23 -14 -13 -148 -19 -179 -7 -21 8 -20 31 2 37 29 9 156 3 173 -7z"/> <path d="M1000 1125 c-5 -14 -21 -30 -35 -35 -32 -12 -32 -26 0 -34 15 -4 27 -16 31 -31 7 -30 34 -33 34 -4 0 14 10 24 30 32 37 14 38 24 5 37 -14 5 -30 21 -35 35 -5 14 -12 25 -15 25 -3 0 -10 -11 -15 -25z m21 -58 c-13 -13 -26 -3 -16 12 3 6 11 8 17 5 6 -4 6 -10 -1 -17z"/> <path d="M98 1050 c-7 -22 -18 -33 -39 -37 -37 -7 -37 -29 0 -36 21 -4 32 -15 39 -37 13 -37 28 -39 36 -4 4 16 19 30 41 40 19 8 35 16 35 19 0 3 -16 11 -35 19 -22 10 -37 24 -41 40 -8 35 -23 33 -36 -4z m31 -66 c-9 -11 -15 -12 -25 -3 -11 9 -12 15 -3 25 9 11 15 12 25 3 11 -9 12 -15 3 -25z"/> <path d="M480 860 c-134 -15 -431 -78 -452 -97 -15 -13 -18 -32 -18 -114 0 -97 1 -99 32 -135 50 -57 77 -64 252 -64 169 0 155 11 230 -185 11 -31 46 -181 46 -201 0 -2 31 -4 70 -4 79 0 68 -13 95 117 8 40 33 117 57 172 42 100 42 100 195 100 137 0 159 2 198 21 68 33 90 76 90 181 0 100 -12 123 -72 134 -20 4 -55 22 -76 41 -46 39 -85 49 -159 39 -78 -9 -128 -10 -273 -3 -71 4 -168 3 -215 -2z m368 -35 c2 -2 -7 -19 -21 -37 -14 -18 -29 -45 -32 -60 -7 -28 -7 -28 -386 -28 -328 0 -379 2 -379 15 0 8 10 21 23 28 26 17 315 75 431 87 74 8 355 4 364 -5z m230 -4 c99 -51 128 -145 76 -249 -33 -66 -78 -92 -161 -92 -72 0 -113 23 -153 87 -47 74 -34 170 32 231 48 44 144 55 206 23z m151 -77 c21 -15 23 -22 19 -100 -3 -80 -4 -85 -38 -118 -19 -19 -48 -38 -65 -42 -30 -7 -30 -7 6 33 20 22 42 57 49 78 12 37 10 113 -5 148 -9 21 4 22 34 1z m-449 -84 c0 -13 -49 -15 -375 -17 -303 -2 -375 0 -375 11 0 7 2 15 4 17 2 2 171 4 375 4 323 0 371 -2 371 -15z m-640 -84 c0 -23 5 -47 12 -54 14 -14 365 -17 387 -3 7 5 14 28 15 51 1 43 1 43 118 44 117 1 117 1 124 -28 3 -15 22 -46 41 -67 35 -39 35 -39 -333 -39 -351 0 -371 1 -402 20 -34 21 -72 74 -72 101 0 13 11 16 55 17 55 0 55 0 55 -42z m388 7 c-3 -38 -3 -38 -180 -41 -178 -2 -178 -2 -178 38 0 40 0 40 181 40 180 0 180 0 177 -37z m62 -153 c-14 -14 -20 -33 -20 -66 0 -68 12 -84 65 -84 71 0 75 4 75 75 0 58 -8 79 -32 80 -3 0 -10 3 -14 8 -4 4 23 7 59 7 37 0 67 -4 67 -8 0 -4 -16 -47 -35 -94 -19 -48 -39 -109 -45 -135 -27 -122 -28 -123 -64 -123 -43 0 -51 11 -66 85 -6 33 -26 98 -45 145 -55 141 -56 130 14 130 61 0 61 0 41 -20z m57 14 c-3 -3 -12 -4 -19 -1 -8 3 -5 6 6 6 11 1 17 -2 13 -5z m33 -84 c0 -50 0 -50 -40 -50 -40 0 -40 0 -40 50 0 50 0 50 40 50 40 0 40 0 40 -50z"/> <path d="M917 785 c-20 -14 -37 -28 -37 -30 0 -3 13 -11 30 -20 55 -28 200 -14 200 20 0 19 -75 55 -117 55 -25 0 -52 -9 -76 -25z m131 -10 c47 -20 29 -35 -45 -35 -82 0 -109 19 -55 38 39 15 58 14 100 -3z"/> <path d="M849 688 c-4 -84 17 -130 73 -159 52 -27 58 -24 58 23 0 51 -39 122 -80 143 -39 20 -50 19 -51 -7z m52 -20 c24 -21 46 -60 51 -95 5 -37 2 -39 -30 -17 -28 19 -52 65 -52 99 0 28 9 31 31 13z"/> <path d="M960 691 c-15 -29 -13 -39 15 -57 24 -16 27 -16 45 1 23 20 26 45 8 63 -18 18 -56 14 -68 -7z m57 -18 c7 -18 -18 -36 -31 -23 -5 5 -10 18 -11 28 -1 14 4 18 18 14 10 -3 21 -11 24 -19z"/> <path d="M1093 696 c-42 -19 -81 -96 -75 -149 4 -33 7 -37 26 -31 74 23 125 113 100 178 -7 19 -10 19 -51 2z m26 -70 c-5 -17 -23 -44 -41 -61 -29 -25 -33 -27 -36 -11 -6 30 7 62 39 97 35 38 53 27 38 -25z"/> <path d="M390 385 c0 -9 -11 -20 -25 -25 -26 -10 -26 -10 9 -45 20 -19 37 -35 40 -35 2 0 6 9 9 21 3 11 15 23 26 26 28 7 26 17 -4 31 -14 6 -25 18 -25 27 0 8 -7 15 -15 15 -8 0 -15 -7 -15 -15z m30 -39 c0 -3 -4 -8 -10 -11 -5 -3 -10 -1 -10 4 0 6 5 11 10 11 6 0 10 -2 10 -4z"/> <path d="M154 328 c-23 -8 -34 -19 -42 -46 -6 -19 -9 -39 -6 -44 3 -4 -8 -8 -24 -8 -17 0 -40 -8 -53 -19 -19 -15 -23 -28 -23 -82 -1 -64 -1 -64 209 -67 115 -1 214 -1 220 2 7 2 9 28 5 70 -6 72 -23 95 -72 96 -21 0 -28 5 -28 20 0 74 -85 110 -186 78z m134 -34 c12 -8 22 -26 22 -40 0 -24 -1 -24 -90 -24 -100 0 -111 9 -65 55 29 30 97 34 133 9z m112 -109 c6 -8 13 -33 13 -55 2 -41 2 -41 -191 -43 -192 -2 -192 -2 -192 36 0 77 0 77 189 77 136 0 171 -3 181 -15z"/> <path d="M983 325 c-27 -11 -34 -21 -39 -54 -6 -36 -10 -41 -34 -41 -46 0 -70 -37 -70 -108 0 -62 0 -62 221 -62 221 0 221 0 217 66 -3 55 -8 70 -27 85 -13 11 -33 19 -46 19 -18 0 -25 9 -35 44 -10 38 -17 45 -50 55 -49 15 -98 13 -137 -4z m142 -40 c46 -46 35 -55 -65 -55 -83 0 -90 1 -90 20 0 59 107 84 155 35z m113 -97 c7 -7 12 -32 12 -57 0 -46 0 -46 -190 -46 -190 0 -190 0 -190 46 0 25 5 50 12 57 17 17 339 17 356 0z"/> </g> </svg>