<?xml version="1.0" standalone="no"?>
<!DOCTYPE svg PUBLIC "-//W3C//DTD SVG 20010904//EN"
 "http://www.w3.org/TR/2001/REC-SVG-20010904/DTD/svg10.dtd">
<svg version="1.0" xmlns="http://www.w3.org/2000/svg"
 width="128.000000pt" height="128.000000pt" viewBox="0 0 128.000000 128.000000"
 preserveAspectRatio="xMidYMid meet">

<g transform="translate(0.000000,128.000000) scale(0.100000,-0.100000)"
fill="#000000" stroke="none">
<path d="M305 1213 c-132 -11 -296 -31 -302 -37 -20 -19 23 -23 127 -10 156
19 508 30 495 16 -5 -6 -35 -12 -65 -14 -54 -3 -55 -3 -58 -36 -6 -56 7 -62
137 -62 64 0 122 4 129 9 8 5 12 23 10 47 l-3 39 -57 3 c-34 2 -58 8 -58 14 0
14 327 3 490 -16 104 -13 147 -9 127 10 -3 4 -59 13 -124 21 -114 14 -736 26
-848 16z"/>
<path d="M997 1120 c-3 -11 -17 -24 -31 -30 -33 -12 -33 -26 -1 -34 15 -4 27
-16 31 -31 8 -32 22 -32 34 0 5 14 13 25 18 25 4 0 17 6 28 14 18 14 18 15 -9
25 -16 6 -31 20 -34 31 -3 11 -11 20 -18 20 -7 0 -15 -9 -18 -20z m27 -51 c-3
-5 -10 -7 -15 -3 -5 3 -7 10 -3 15 3 5 10 7 15 3 5 -3 7 -10 3 -15z"/>
<path d="M99 1051 c-7 -19 -21 -33 -40 -40 -16 -5 -29 -13 -29 -16 0 -3 13
-11 29 -16 19 -7 33 -21 40 -40 13 -37 24 -37 38 1 7 18 21 32 37 36 32 8 34
31 4 36 -14 2 -29 15 -38 35 -19 40 -28 41 -41 4z m30 -68 c-15 -17 -32 -2
-23 21 5 13 9 14 20 5 11 -9 12 -15 3 -26z"/>
<path d="M505 860 c-140 -12 -456 -78 -479 -100 -22 -21 -32 -96 -21 -165 8
-58 61 -120 113 -135 21 -5 103 -10 183 -10 l147 0 45 -112 c36 -87 77 -235
77 -274 0 -2 31 -4 70 -4 79 0 68 -13 95 116 8 40 33 117 56 173 l42 101 143
-1 c167 0 208 9 251 53 42 44 53 76 53 157 0 84 -20 116 -79 126 -22 3 -47 16
-58 27 -39 43 -90 60 -162 54 -110 -11 -151 -11 -271 -5 -63 4 -155 3 -205 -1z
m343 -34 c2 -3 -7 -20 -21 -38 -14 -18 -30 -45 -36 -61 l-11 -27 -375 0 c-324
0 -375 2 -375 15 0 8 10 21 23 28 24 15 294 71 417 86 70 9 368 6 378 -3z
m190 -52 c44 -12 21 -24 -45 -24 -62 1 -66 2 -49 15 21 16 56 19 94 9z m191
-30 c21 -15 23 -22 19 -100 -3 -80 -4 -85 -38 -118 -19 -19 -47 -38 -63 -42
l-27 -6 29 31 c56 59 76 162 46 234 -9 21 4 22 34 1z m-221 -75 c-2 -6 -8 -10
-13 -10 -5 0 -11 4 -13 10 -2 6 4 11 13 11 9 0 15 -5 13 -11z m-80 -48 c23
-41 28 -71 13 -71 -19 0 -61 62 -61 90 0 39 20 31 48 -19z m192 34 c0 -23 -24
-67 -49 -89 -21 -19 -21 -19 -21 8 0 15 8 39 17 54 27 43 53 55 53 27z m-980
-83 c0 -21 5 -43 12 -50 13 -13 351 -18 382 -6 11 4 16 19 16 50 l0 44 119 0
c119 0 119 0 125 -25 4 -14 23 -43 42 -65 l36 -40 -368 0 c-351 0 -371 1 -402
20 -32 20 -72 74 -72 98 0 8 18 12 55 12 l55 0 0 -38z m380 3 l0 -35 -175 0
-175 0 0 35 0 35 175 0 175 0 0 -35z m160 -215 l0 -50 -40 0 -40 0 0 50 0 50
40 0 40 0 0 -50z"/>
<path d="M378 370 l-28 -28 29 -31 c34 -37 37 -37 44 -10 3 11 15 23 26 26 28
7 26 17 -4 31 -14 6 -25 18 -25 27 0 22 -11 18 -42 -15z"/>
<path d="M153 325 c-24 -10 -35 -24 -44 -54 -10 -33 -17 -41 -36 -41 -47 0
-77 -53 -71 -126 l3 -39 218 -3 217 -2 0 64 c0 58 -3 67 -26 85 -15 12 -37 21
-50 21 -17 0 -24 6 -24 20 0 10 -5 31 -12 44 -19 43 -111 59 -175 31z m141
-41 c9 -8 16 -24 16 -35 0 -17 -8 -19 -85 -19 -82 0 -85 1 -85 23 0 13 5 28
12 35 18 18 123 15 142 -4z m111 -108 c9 -14 15 -39 13 -58 l-3 -33 -192 -3
-193 -2 0 40 c0 80 -1 80 190 80 168 0 170 0 185 -24z"/>
<path d="M994 329 c-31 -9 -54 -43 -54 -79 0 -14 -7 -20 -24 -20 -13 0 -35 -9
-50 -21 -23 -18 -26 -27 -26 -85 l0 -64 221 0 221 0 -4 66 c-3 55 -8 70 -27
85 -13 11 -33 19 -46 19 -17 0 -25 9 -34 41 -10 31 -20 44 -46 55 -38 16 -84
17 -131 3z m133 -41 c6 -7 13 -23 16 -35 5 -23 3 -23 -84 -23 -76 0 -89 2 -89
17 0 35 30 53 90 53 34 0 62 -5 67 -12z m111 -100 c7 -7 12 -34 12 -60 l0 -48
-190 0 -190 0 0 48 c0 26 5 53 12 60 17 17 339 17 356 0z"/>
</g>
</svg>
