<?xml version="1.0" encoding="UTF-8"?>
<svg version="1.1" xmlns="http://www.w3.org/2000/svg" width="522" height="285">
<path d="M0 0 C172.26 0 344.52 0 522 0 C522 94.05 522 188.1 522 285 C349.74 285 177.48 285 0 285 C0 190.95 0 96.9 0 0 Z " fill="#D7A083" transform="translate(0,0)"/>
<path d="M0 0 C73 0 73 0 91 5 C94.47761505 5.86044084 97.94641854 6.70382652 101.4375 7.5 C108.08973147 9.05155339 114.7125084 10.67675458 121.3125 12.4375 C128.50543964 14.35561724 135.71413369 16.19974483 142.9375 18 C143.95255615 18.25313965 144.9676123 18.5062793 146.01342773 18.76708984 C150.78749583 19.95593015 155.56286003 21.1393389 160.33984375 22.31640625 C168.42486953 24.31422054 176.48079772 26.37607242 184.5 28.625 C186.67559505 29.23266864 188.85120675 29.84027746 191.02685547 30.44775391 C192.84286295 30.95602029 194.65781154 31.46806602 196.47265625 31.98046875 C197.49230469 32.25503906 198.51195312 32.52960937 199.5625 32.8125 C200.40941406 33.04582031 201.25632813 33.27914062 202.12890625 33.51953125 C209.7618847 34.79688683 216.9103015 33.66946628 224.41015625 32.09375 C225.89476349 31.79294022 225.89476349 31.79294022 227.40936279 31.48605347 C230.62874512 30.83194112 233.84553146 30.16587157 237.0625 29.5 C239.29302071 29.04544269 241.52373592 28.59183878 243.75463867 28.13916016 C248.2924017 27.21722492 252.82924389 26.29096882 257.36523438 25.36035156 C266.31222321 23.52482993 275.26215345 21.70417208 284.21554565 19.90014648 C286.76904373 19.38378757 289.3211924 18.861116 291.87329102 18.33789062 C293.42198396 18.02447363 294.9707277 17.71130745 296.51953125 17.3984375 C297.20996521 17.25518036 297.90039917 17.11192322 298.61175537 16.96432495 C302.12751169 16.26080909 305.41362949 15.8457753 309 16 C309 16.66 309 17.32 309 18 C308.05382812 18.17015625 307.10765625 18.3403125 306.1328125 18.515625 C298.71975827 19.86759596 291.34872282 21.3317921 284 23 C277.83635107 24.39684054 271.66736881 25.6583051 265.44775391 26.78735352 C259.4004348 27.89708137 253.38991636 29.16510464 247.375 30.4375 C239.16400764 32.1673016 230.94216826 33.80410582 222.6875 35.3125 C221.75663574 35.48386475 220.82577148 35.65522949 219.86669922 35.83178711 C218.57723389 36.06393921 218.57723389 36.06393921 217.26171875 36.30078125 C216.50850342 36.43653564 215.75528809 36.57229004 214.97924805 36.7121582 C213 37 213 37 210 37 C210 100.69 210 164.38 210 230 C215.94 230.66 221.88 231.32 228 232 C231.45390782 232.48686203 234.88834535 232.98693979 238.328125 233.55078125 C239.19770844 233.68974319 240.06729187 233.82870514 240.96322632 233.97187805 C243.72617576 234.41457255 246.48808343 234.8634113 249.25 235.3125 C251.20226078 235.626453 253.15457271 235.94008807 255.10693359 236.25341797 C267.13308686 238.18825682 279.14746217 240.18814905 291.15698242 242.22363281 C297.64609755 243.31195025 304.14111236 244.33209601 310.65234375 245.27734375 C311.39436035 245.3851416 312.13637695 245.49293945 312.90087891 245.60400391 C316.46418412 246.11968432 320.02832415 246.62817599 323.59423828 247.12548828 C331.06478434 248.18182165 338.46637684 249.44140272 345.87109375 250.890625 C358.36075396 253.33000669 370.92376143 255.25456915 383.5 257.1875 C386.94543545 257.71992375 390.3907072 258.25338115 393.83581543 258.78791809 C395.95579388 259.11656082 398.07598241 259.44385216 400.19641113 259.76957703 C401.62575989 259.9903466 401.62575989 259.9903466 403.08398438 260.21557617 C404.33133362 260.40732674 404.33133362 260.40732674 405.60388184 260.60295105 C408.08211144 261.01360628 410.53962605 261.49398519 413 262 C413 262.66 413 263.32 413 264 C402.7129677 263.43706729 392.70506402 261.95354535 382.5625 260.25 C381.09318194 260.00730958 379.62378083 259.76512144 378.15429688 259.5234375 C372.03299918 258.51394612 365.91425577 257.48924368 359.79589844 256.46209717 C338.67125005 252.91605552 317.52802811 249.49707209 296.375 246.125 C294.72560595 245.86202195 293.07621223 245.59904179 291.42681885 245.33605957 C290.60351137 245.20479675 289.7802039 245.07353394 288.93194771 244.93829346 C285.61794349 244.40991567 282.30395036 243.88146841 278.98996353 243.35298157 C277.35550114 243.09236508 275.72102803 242.83181578 274.08654404 242.57133484 C263.94002778 240.95416372 253.79643744 239.32054711 243.65625 237.6640625 C240.64683153 237.175087 237.63731632 236.68671296 234.62774658 236.19866943 C232.81707092 235.90354789 231.00679387 235.60596845 229.19696045 235.3057251 C226.75467942 234.90065961 224.31116148 234.50407557 221.8671875 234.109375 C221.18942261 233.99437653 220.51165771 233.87937805 219.81335449 233.76089478 C212.33800478 232.57289426 205.52293836 232.58614708 198.16796875 234.43359375 C196.89276367 234.7483667 195.61755859 235.06313965 194.30371094 235.38745117 C192.93159593 235.73729219 191.55952687 236.08731347 190.1875 236.4375 C188.74144745 236.79823131 187.29515256 237.15799243 185.84863281 237.5168457 C182.01626068 238.47019201 178.1871333 239.43598281 174.35858154 240.40454102 C170.4296027 241.39647015 166.49795515 242.37769122 162.56640625 243.359375 C161.00593311 243.74923698 159.44546758 244.13912942 157.88500977 244.52905273 C157.11859161 244.72054901 156.35217346 244.91204529 155.56253052 245.10934448 C153.25758678 245.68560323 150.95285852 246.26271612 148.64819336 246.84008789 C118.06754457 254.49949789 118.06754457 254.49949789 107.5625 256.375 C94.59887194 258.70687212 81.80975208 261.94853285 69 265 C67.94135742 265.25152832 66.88271484 265.50305664 65.79199219 265.76220703 C56.17864822 268.04847958 46.57310802 270.36586606 36.97688293 272.72296143 C33.61321458 273.54897862 30.2489926 274.37273091 26.88479614 275.19659424 C24.42247377 275.8008499 21.96111174 276.40891132 19.49975586 277.01708984 C17.96602676 277.39308189 16.43225582 277.76890333 14.8984375 278.14453125 C13.85773354 278.40350441 13.85773354 278.40350441 12.79600525 278.66770935 C8.50829887 279.71267741 4.403478 280.37093171 0 281 C0 188.27 0 95.54 0 0 Z " fill="#9CAC99" transform="translate(0,0)"/>
<path d="M0 0 C1.60065308 0.25466789 1.60065308 0.25466789 3.23364258 0.51448059 C6.77536247 1.07976896 10.31537651 1.65508243 13.85546875 2.23046875 C16.37384919 2.63453103 18.89232476 3.03800084 21.41088867 3.44091797 C28.20198818 4.52943836 34.9915758 5.62709471 41.78076172 6.72747803 C46.07623526 7.42362259 50.3720633 8.11756153 54.66796875 8.81103516 C66.2987345 10.68878313 77.92932988 12.5675595 89.55859375 14.45458984 C106.88801368 17.26615264 124.22192735 20.04709677 141.5635376 22.78265381 C151.30385376 24.320005 161.02629813 25.91408012 170.73046875 27.66796875 C178.16596875 29.01037496 185.59801413 30.00704962 193.10546875 30.85546875 C205.30482242 32.23813143 217.36250651 34.22454901 229.46055603 36.30088806 C239.06118302 37.94295902 248.67838511 39.48519327 258.29296875 41.04296875 C261.83992123 41.61801304 265.38680426 42.19348249 268.93359375 42.76953125 C269.77540192 42.90625244 270.61721008 43.04297363 271.48452759 43.18383789 C280.00809592 44.57073197 288.52607889 45.99070912 297.04296875 47.41796875 C297.04296875 48.73796875 297.04296875 50.05796875 297.04296875 51.41796875 C124.78296875 51.41796875 -47.47703125 51.41796875 -224.95703125 51.41796875 C-224.95703125 50.09796875 -224.95703125 48.77796875 -224.95703125 47.41796875 C-211.59410832 43.70219916 -198.1010958 40.521239 -184.61376953 37.29394531 C-181.26770802 36.49239179 -177.92267535 35.68673812 -174.578125 34.87890625 C-168.373602 33.38134849 -162.16627251 31.89583759 -155.95703125 30.41796875 C-154.74305664 30.12889648 -153.52908203 29.83982422 -152.27832031 29.54199219 C-127.26076244 23.60056049 -127.26076244 23.60056049 -116.33203125 21.54296875 C-103.09815654 19.02613153 -90.07838525 15.50228823 -77.02488708 12.19682312 C-64.83436031 9.11563883 -52.6074764 6.18354812 -40.38134766 3.24755859 C-37.39585922 2.52428113 -34.41571164 1.7837998 -31.4375 1.03125 C-30.65785889 0.83764893 -29.87821777 0.64404785 -29.07495117 0.44458008 C-27.17987072 -0.02662321 -25.28704012 -0.50685355 -23.39453125 -0.98828125 C-15.46163 -2.35850965 -7.87868122 -1.29601179 0 0 Z " fill="#F4F4EE" transform="translate(224.95703125,233.58203125)"/>
<path d="M0 0 C0 49.5 0 99 0 150 C-9.17546064 149.38830262 -18.33795924 148.76549688 -27.5 148 C-28.51835937 147.9175 -29.53671875 147.835 -30.5859375 147.75 C-31.57851563 147.6675 -32.57109375 147.585 -33.59375 147.5 C-34.46708984 147.4278125 -35.34042969 147.355625 -36.24023438 147.28125 C-39.50449609 146.94858639 -42.75180847 146.46402736 -46 146 C-46 99.8 -46 53.6 -46 6 C-8.8 0 -8.8 0 0 0 Z " fill="#575F63" transform="translate(378,45)"/>
<path d="M0 0 C102.3 0 204.6 0 310 0 C306.63344315 1.68327843 304.4090632 2.46496863 300.81445312 3.17333984 C299.26002502 3.48408951 299.26002502 3.48408951 297.67419434 3.80111694 C295.99468689 4.12772812 295.99468689 4.12772812 294.28125 4.4609375 C293.11356079 4.6927774 291.94587158 4.92461731 290.74279785 5.16348267 C286.99624743 5.90607955 283.24818171 6.64068596 279.5 7.375 C277.03765486 7.86144514 274.57541407 8.34841884 272.11328125 8.8359375 C267.28082381 9.7921228 262.4477884 10.74529978 257.61425781 11.69604492 C252.16243545 12.76926305 246.71323486 13.85485025 241.265625 14.94921875 C232.66591067 16.67500372 224.05988212 18.36835825 215.453125 20.05859375 C214.04679166 20.33488991 212.64046029 20.61119613 211.23413086 20.88751221 C205.45963673 22.0219553 199.68512444 23.15630229 193.91015625 24.28833008 C190.33600109 24.98901033 186.76209768 25.69096197 183.18836975 26.3938179 C181.78572578 26.66951239 180.383006 26.94482143 178.98020935 27.21973801 C171.93897865 28.60024766 164.90563873 30.00505503 157.89257812 31.52392578 C156.80257507 31.75878189 155.71257202 31.993638 154.58953857 32.23561096 C152.60173365 32.66742861 150.61557235 33.10692827 148.63165283 33.55625916 C140.58057665 35.30619522 133.49567144 35.67405096 125.453125 33.609375 C124.2775 33.31160156 123.101875 33.01382813 121.890625 32.70703125 C120.68921875 32.39121094 119.4878125 32.07539062 118.25 31.75 C117.0640625 31.44964844 115.878125 31.14929688 114.65625 30.83984375 C107.65822748 29.04449954 100.7527986 27.03637778 93.85839844 24.87939453 C90.42427174 23.82287554 86.99025953 22.91541252 83.5 22.0625 C82.85039307 21.90265625 82.20078613 21.7428125 81.53149414 21.578125 C74.93392916 19.96283517 68.31955904 18.41667446 61.70898438 16.85571289 C55.41276842 15.36018964 49.17015505 13.72663236 42.92578125 12.02734375 C38.20465023 10.76812978 33.44497738 9.67459849 28.6875 8.5625 C19.04665433 6.30530739 9.51651003 3.73062254 0 1 C0 0.67 0 0.34 0 0 Z " fill="#F4F5EF" transform="translate(73,0)"/>
<path d="M0 0 C0.33 22.77 0.66 45.54 1 69 C-0.65 69 -2.3 69 -4 69 C-4.66 72.96 -5.32 76.92 -6 81 C-5.34 81 -4.68 81 -4 81 C-4 78.36 -4 75.72 -4 73 C-3.67 73 -3.34 73 -3 73 C-3 82.9 -3 92.8 -3 103 C-2.67 92.44 -2.34 81.88 -2 71 C-1.34 71 -0.68 71 0 71 C0 93.11 0 115.22 0 138 C-20.70608108 138 -20.70608108 138 -29.625 137 C-30.54539062 136.90460938 -31.46578125 136.80921875 -32.4140625 136.7109375 C-34.61024574 136.48216841 -36.80528106 136.24241471 -39 136 C-39.02332863 118.93699413 -39.04097899 101.87399322 -39.05181217 84.81097507 C-39.05697521 76.88887055 -39.06401805 68.96677591 -39.07543945 61.04467773 C-39.08538606 54.14225363 -39.09185337 47.23983669 -39.09408849 40.33740562 C-39.09539564 36.68039339 -39.09848174 33.02340164 -39.10573006 29.36639595 C-39.11374348 25.29055994 -39.11399115 21.21475987 -39.11352539 17.13891602 C-39.11712067 15.91756454 -39.12071594 14.69621307 -39.12442017 13.43785095 C-39.1230455 12.33422211 -39.12167084 11.23059326 -39.12025452 10.09352112 C-39.12117631 9.12840386 -39.1220981 8.16328661 -39.12304783 7.16892338 C-39 5 -39 5 -38 4 C-35.88146753 3.62838393 -33.75257754 3.31553672 -31.62109375 3.02734375 C-30.65285423 2.8962899 -30.65285423 2.8962899 -29.66505432 2.7625885 C-28.29253179 2.57811583 -26.91971196 2.39584414 -25.54663086 2.21557617 C-23.46953257 1.9417233 -21.39397442 1.65789639 -19.31835938 1.37304688 C-17.98185249 1.19469953 -16.64526602 1.01694733 -15.30859375 0.83984375 C-14.10001709 0.67863037 -12.89144043 0.51741699 -11.64624023 0.35131836 C-7.78029752 -0.02116852 -3.88384598 0 0 0 Z " fill="#4E585B" transform="translate(327,52)"/>
<path d="M0 0 C0 0.66 0 1.32 0 2 C-20.78025947 5.30317439 -41.57270183 8.40185474 -62.4375 11.125 C-75.05275999 12.77178513 -87.62945209 14.46597273 -100.16235352 16.66577148 C-107.82428354 18.00730461 -115.51203334 19.07042294 -123.22827148 20.04956055 C-124.08880127 20.16082275 -124.94933105 20.27208496 -125.8359375 20.38671875 C-126.59438965 20.48170654 -127.3528418 20.57669434 -128.13427734 20.67456055 C-130.08480966 20.9228771 -130.08480966 20.9228771 -132 22 C-124.36183589 22.23382135 -117.11879263 21.32643178 -109.5703125 20.20703125 C-108.27826401 20.02062073 -106.98621552 19.83421021 -105.65501404 19.64215088 C-102.19079421 19.1423192 -98.72772464 18.63490955 -95.2648201 18.12605667 C-91.68367022 17.601296 -88.10144336 17.08400033 -84.51928711 16.56616211 C-78.88752374 15.751274 -73.25627437 14.9329414 -67.62548828 14.11132812 C-58.9701393 12.84885858 -50.31289656 11.59997967 -41.6539917 10.3621521 C-39.65400649 10.07561031 -37.65438643 9.78652331 -35.65478516 9.49731445 C-29.25366408 8.57742618 -22.84799293 7.70066985 -16.43359375 6.87890625 C-15.14380615 6.71334229 -13.85401855 6.54777832 -12.52514648 6.37719727 C-8.3009957 5.92520523 -4.24162833 5.84851327 0 6 C-0.33 6.66 -0.66 7.32 -1 8 C-3.21118164 8.54663086 -3.21118164 8.54663086 -6.16015625 8.96484375 C-7.82014648 9.20557617 -7.82014648 9.20557617 -9.51367188 9.45117188 C-10.68478516 9.61166016 -11.85589844 9.77214844 -13.0625 9.9375 C-14.14466797 10.09412109 -15.22683594 10.25074219 -16.34179688 10.41210938 C-22.9298017 11.35004994 -29.52666706 12.19397284 -36.13098145 13.00723267 C-51.13300369 14.85481238 -66.09722891 16.93974563 -81.0625 19.0625 C-90.37434506 20.37967365 -99.68672927 21.69294498 -109 23 C-109.85374207 23.12042664 -110.70748413 23.24085327 -111.58709717 23.3649292 C-113.70211387 23.66228644 -115.81767095 23.95526643 -117.93359375 24.24609375 C-119.01568115 24.39618896 -120.09776855 24.54628418 -121.21264648 24.70092773 C-124 25 -124 25 -129 25 C-129 70.87 -129 116.74 -129 164 C-125.7 164 -122.4 164 -119 164 C-116.10621799 164.16253908 -113.23064297 164.34900836 -110.34375 164.5859375 C-109.55713989 164.64778229 -108.77052979 164.70962708 -107.96008301 164.77334595 C-106.30624537 164.90429419 -104.65255826 165.03715693 -102.99902344 165.171875 C-100.53357798 165.37227072 -98.06765279 165.56553437 -95.6015625 165.7578125 C-87.84882622 166.37256478 -80.11904846 167.07259522 -72.39453125 167.9765625 C-59.56046876 169.46833526 -46.66487016 170.30436334 -33.78149414 171.25 C-9.41141701 173.04777818 -9.41141701 173.04777818 1 175 C1 175.66 1 176.32 1 177 C-2.57916488 176.72587508 -6.15822704 176.45043121 -9.73724365 176.17437744 C-11.31604429 176.05270848 -12.89486242 175.93126633 -14.47369385 175.80999756 C-39.34104735 173.89871507 -64.19040851 171.91968271 -88.99536133 169.30737305 C-101.96306724 167.94675309 -114.8829023 166.80543014 -127.9375 166.9375 C-129.2668457 166.94426758 -129.2668457 166.94426758 -130.62304688 166.95117188 C-132.74872917 166.96266205 -134.87437537 166.98057805 -137 167 C-134.77734889 168.11132555 -133.2759175 168.24568113 -130.80737305 168.44946289 C-129.94102737 168.52386093 -129.0746817 168.59825897 -128.18208313 168.6749115 C-127.23898788 168.75254227 -126.29589264 168.83017303 -125.32421875 168.91015625 C-117.40147157 169.595583 -109.48948318 170.33945495 -101.58203125 171.18359375 C-100.6301593 171.2848053 -99.67828735 171.38601685 -98.6975708 171.49029541 C-96.74071016 171.69864609 -94.78388264 171.90730799 -92.8270874 172.11627197 C-75.96198252 173.91338171 -59.09651736 175.57684916 -42.19335938 176.96972656 C-28.11038419 178.13298929 -14.055548 179.54371724 0 181 C0 181.66 0 182.32 0 183 C-7.3088419 183.14306792 -14.46176483 182.71373795 -21.734375 182.01171875 C-22.83692123 181.90894119 -23.93946747 181.80616364 -25.07542419 181.70027161 C-28.63406557 181.36727529 -32.19202809 181.02756843 -35.75 180.6875 C-38.22563915 180.45412811 -40.70130666 180.22105679 -43.17700195 179.98828125 C-57.40004507 178.64691994 -71.61930104 177.27092615 -85.83203125 175.82421875 C-97.67646924 174.62137857 -109.52627745 173.47220146 -121.375 172.3125 C-123.71508865 172.08334105 -126.05517655 171.85417456 -128.39526367 171.625 C-133.93014626 171.08303146 -139.46505961 170.54137793 -145 170 C-145.33 168.35 -145.66 166.7 -146 165 C-144.35 165 -142.7 165 -141 165 C-141 117.15 -141 69.3 -141 20 C-138.86127828 18.93063914 -137.29099877 18.67654475 -134.92895508 18.35498047 C-133.65245842 18.17835876 -133.65245842 18.17835876 -132.35017395 17.99816895 C-130.94900581 17.80958313 -130.94900581 17.80958313 -129.51953125 17.6171875 C-128.54034225 17.48227905 -127.56115326 17.34737061 -126.55229187 17.20837402 C-124.42421256 16.91525514 -122.29593265 16.62358988 -120.16748047 16.33319092 C-114.46069798 15.55381353 -108.75567764 14.76179976 -103.05078125 13.96875 C-101.87915436 13.80595551 -100.70752747 13.64316101 -99.50039673 13.47543335 C-87.82283809 11.84669083 -76.16019261 10.12315645 -64.5 8.375 C-62.55176308 8.08370497 -60.60352094 7.79244494 -58.65527344 7.5012207 C-50.52101775 6.2839491 -42.38780716 5.06005131 -34.25637817 3.82403564 C-31.09214522 3.3441079 -27.92725758 2.86860661 -24.76220703 2.394104 C-23.32127774 2.17688511 -21.88066952 1.95752305 -20.44042969 1.73577881 C-13.57507757 0.67876575 -6.95335629 -0.29008945 0 0 Z " fill="#5F5852" transform="translate(413,28)"/>
<path d="M0 0 C19.305 2.475 19.305 2.475 39 5 C39 25.46 39 45.92 39 67 C26.13 67.33 13.26 67.66 0 68 C0 45.56 0 23.12 0 0 Z " fill="#D8C3A9" transform="translate(135,77)"/>
<path d="M0 0 C1.41381367 -0.01164673 2.82765572 -0.01987236 4.24150085 -0.02670288 C5.02882945 -0.0316596 5.81615805 -0.03661633 6.62734509 -0.04172325 C10.24134147 0.02182905 13.76021349 0.49989923 17.33203125 1.0234375 C18.46882576 1.18279282 18.46882576 1.18279282 19.62858582 1.34536743 C22.02408374 1.68280489 24.41823847 2.02891179 26.8125 2.375 C28.40422166 2.59949228 29.9960182 2.82345431 31.58789062 3.046875 C33.1485052 3.26775138 34.70905431 3.48909087 36.26953125 3.7109375 C36.96681839 3.80998383 37.66410553 3.90903015 38.38252258 4.01107788 C44.60837352 4.91191499 50.78989308 5.96498218 57 7 C57 32.41 57 57.82 57 84 C10.25813729 86.52658717 10.25813729 86.52658717 1 86 C-0.7772169 84.2227831 -0.11988099 81.847528 -0.12442017 79.48136902 C-0.12082489 78.69015152 -0.11722961 77.89893402 -0.11352539 77.08374023 C-0.11367142 76.25454071 -0.11381744 75.42534119 -0.1139679 74.5710144 C-0.11326851 71.81684802 -0.10547493 69.06274839 -0.09765625 66.30859375 C-0.09579216 64.40430234 -0.09436822 62.50001045 -0.09336853 60.59571838 C-0.08954263 55.57332037 -0.07971173 50.55095108 -0.06866455 45.52856445 C-0.05845198 40.4077188 -0.05387124 35.28686852 -0.04882812 30.16601562 C-0.03808953 20.11066443 -0.02101224 10.0553346 0 0 Z M11 9 C11 31.44 11 53.88 11 77 C23.87 76.67 36.74 76.34 50 76 C50 55.54 50 35.08 50 14 C39.78414363 12.72794625 39.78414363 12.72794625 29.56811523 11.45727539 C28.28622314 11.29735107 27.00433105 11.13742676 25.68359375 10.97265625 C24.37962646 10.81031494 23.07565918 10.64797363 21.73217773 10.48071289 C18.15048477 10.01938278 14.57498573 9.51071225 11 9 Z " fill="#918071" transform="translate(124,68)"/>
<path d="M0 0 C2.88916016 -0.34057617 2.88916016 -0.34057617 6.5390625 -0.29296875 C8.49199219 -0.2784668 8.49199219 -0.2784668 10.484375 -0.26367188 C11.86458923 -0.23860388 13.24479756 -0.21320902 14.625 -0.1875 C16.01300663 -0.17245517 17.40102867 -0.15876641 18.7890625 -0.14648438 C22.19309509 -0.1110257 25.59635622 -0.06160298 29 0 C28.67 3.63 28.34 7.26 28 11 C28.66 11 29.32 11 30 11 C30 8.36 30 5.72 30 3 C30.33 3 30.66 3 31 3 C30.99476318 3.84594727 30.98952637 4.69189453 30.98413086 5.56347656 C30.96688673 8.76171609 30.95445296 11.9599316 30.94506836 15.15820312 C30.94010049 16.53125803 30.9333239 17.90430782 30.92456055 19.27734375 C30.8768017 26.96370842 31.04704536 34.52100616 31.77514648 42.17285156 C32.14832821 46.86497364 32.10624048 51.54621604 32.0625 56.25 C32.05798828 57.19746094 32.05347656 58.14492187 32.04882812 59.12109375 C32.03724711 61.41413442 32.02094479 63.70702914 32 66 C28.77067454 65.85756344 25.54158041 65.71037996 22.3125 65.5625 C21.41982422 65.52318359 20.52714844 65.48386719 19.60742188 65.44335938 C14.44145779 65.2043646 9.28944138 64.88390444 4.13354492 64.48022461 C2.4030616 64.34528847 2.4030616 64.34528847 0.63761902 64.20762634 C-0.23279526 64.13910965 -1.10320953 64.07059296 -2 64 C-2.04632389 56.09841497 -2.0818694 48.19688661 -2.10362434 40.29519939 C-2.1140652 36.62619419 -2.1282298 32.95728184 -2.15087891 29.28833008 C-2.17259669 25.74812214 -2.18456636 22.20800356 -2.18975449 18.66773415 C-2.19525273 16.65856095 -2.21086735 14.64942374 -2.22659302 12.64030457 C-2.22674408 11.41926529 -2.22689514 10.19822601 -2.22705078 8.94018555 C-2.231492 7.86318893 -2.23593323 6.78619232 -2.24050903 5.67655945 C-2 3 -2 3 0 0 Z " fill="#646D70" transform="translate(293,122)"/>
<path d="M0 0 C5.25220272 0.98769299 10.45901598 2.08319648 15.640625 3.39453125 C16.68831055 3.6587085 17.73599609 3.92288574 18.81542969 4.19506836 C19.86633789 4.4606958 20.91724609 4.72632324 22 5 C23.90609864 5.47716753 25.81234494 5.95374566 27.71875 6.4296875 C30.69103456 7.17263147 33.66324444 7.91586831 36.63525391 8.65991211 C41.5441711 9.88845838 46.4537696 11.1137864 51.3671875 12.32421875 C59.4433789 14.31837849 67.48990691 16.37862703 75.5 18.625 C77.67559505 19.23266864 79.85120675 19.84027746 82.02685547 20.44775391 C83.84286295 20.95602029 85.65781154 21.46806602 87.47265625 21.98046875 C88.49230469 22.25503906 89.51195312 22.52960937 90.5625 22.8125 C91.40941406 23.04582031 92.25632812 23.27914062 93.12890625 23.51953125 C100.7618847 24.79688683 107.9103015 23.66946628 115.41015625 22.09375 C116.39989441 21.89321014 117.38963257 21.69267029 118.40936279 21.48605347 C121.62874512 20.83194112 124.84553146 20.16587157 128.0625 19.5 C130.29302071 19.04544269 132.52373592 18.59183878 134.75463867 18.13916016 C139.2924017 17.21722492 143.82924389 16.29096882 148.36523438 15.36035156 C157.31222321 13.52482993 166.26215345 11.70417208 175.21554565 9.90014648 C177.76904373 9.38378757 180.3211924 8.861116 182.87329102 8.33789062 C184.42198396 8.02447363 185.9707277 7.71130745 187.51953125 7.3984375 C188.20996521 7.25518036 188.90039917 7.11192322 189.61175537 6.96432495 C193.12751169 6.26080909 196.41362949 5.8457753 200 6 C200 6.66 200 7.32 200 8 C198.58074219 8.25523438 198.58074219 8.25523438 197.1328125 8.515625 C189.71975827 9.86759596 182.34872282 11.3317921 175 13 C168.83635107 14.39684054 162.66736881 15.6583051 156.44775391 16.78735352 C150.4004348 17.89708137 144.38991636 19.16510464 138.375 20.4375 C130.16400764 22.1673016 121.94216826 23.80410582 113.6875 25.3125 C112.75663574 25.48386475 111.82577148 25.65522949 110.86669922 25.83178711 C110.00705566 25.98655518 109.14741211 26.14132324 108.26171875 26.30078125 C107.50850342 26.43653564 106.75528809 26.57229004 105.97924805 26.7121582 C104 27 104 27 101 27 C101 90.69 101 154.38 101 220 C106.94 220.66 112.88 221.32 119 222 C122.45390782 222.48686203 125.88834535 222.98693979 129.328125 223.55078125 C130.19770844 223.68974319 131.06729187 223.82870514 131.96322632 223.97187805 C134.72617576 224.41457255 137.48808343 224.8634113 140.25 225.3125 C142.20226078 225.626453 144.15457271 225.94008807 146.10693359 226.25341797 C158.13308686 228.18825682 170.14746217 230.18814905 182.15698242 232.22363281 C188.64609755 233.31195025 195.14111236 234.33209601 201.65234375 235.27734375 C202.39436035 235.3851416 203.13637695 235.49293945 203.90087891 235.60400391 C207.46418412 236.11968432 211.02832415 236.62817599 214.59423828 237.12548828 C222.06478434 238.18182165 229.46637684 239.44140272 236.87109375 240.890625 C249.36075396 243.33000669 261.92376143 245.25456915 274.5 247.1875 C277.94543545 247.71992375 281.3907072 248.25338115 284.83581543 248.78791809 C286.95579388 249.11656082 289.07598241 249.44385216 291.19641113 249.76957703 C292.62575989 249.9903466 292.62575989 249.9903466 294.08398438 250.21557617 C294.91555054 250.34340988 295.7471167 250.47124359 296.60388184 250.60295105 C299.08211144 251.01360628 301.53962605 251.49398519 304 252 C304 252.66 304 253.32 304 254 C293.7129677 253.43706729 283.70506402 251.95354535 273.5625 250.25 C272.09318194 250.00730958 270.62378083 249.76512144 269.15429688 249.5234375 C263.03299918 248.51394612 256.91425577 247.48924368 250.79589844 246.46209717 C229.67125005 242.91605552 208.52802811 239.49707209 187.375 236.125 C185.72560595 235.86202195 184.07621223 235.59904179 182.42681885 235.33605957 C181.60351137 235.20479675 180.7802039 235.07353394 179.93194771 234.93829346 C176.61794349 234.40991567 173.30395036 233.88146841 169.98996353 233.35298157 C168.35550114 233.09236508 166.72102803 232.83181578 165.08654404 232.57133484 C154.94002778 230.95416372 144.79643744 229.32054711 134.65625 227.6640625 C131.64683153 227.175087 128.63731632 226.68671296 125.62774658 226.19866943 C123.81707092 225.90354789 122.00679387 225.60596845 120.19696045 225.3057251 C117.75467942 224.90065961 115.31116148 224.50407557 112.8671875 224.109375 C112.18942261 223.99437653 111.51165771 223.87937805 110.81335449 223.76089478 C103.33800478 222.57289426 96.52293836 222.58614708 89.16796875 224.43359375 C87.89276367 224.7483667 86.61755859 225.06313965 85.30371094 225.38745117 C83.93159593 225.73729219 82.55952687 226.08731347 81.1875 226.4375 C79.74144745 226.79823131 78.29515256 227.15799243 76.84863281 227.5168457 C73.01626068 228.47019201 69.1871333 229.43598281 65.35858154 230.40454102 C61.42960266 231.39647016 57.49795217 232.37767916 53.56640625 233.359375 C52.00512048 233.74948583 50.44384116 234.13962243 48.88256836 234.52978516 C48.1160495 234.72131165 47.34953064 234.91283813 46.55978394 235.11016846 C44.26314521 235.68421435 41.96663493 236.25877128 39.67016602 236.83349609 C36.09339308 237.72859611 32.51636406 238.62266429 28.93908691 239.51574707 C27.11778857 239.97058437 25.2966806 240.42618382 23.47558594 240.88183594 C20.52722117 241.61645442 17.57675694 242.34165382 14.625 243.0625 C13.40538574 243.36837036 13.40538574 243.36837036 12.16113281 243.68041992 C8.02377749 244.67879738 4.25700411 245.20947163 0 245 C2.24168304 242.75831696 3.2834948 242.49496785 6.30004883 241.75073242 C7.19311234 241.52677292 8.08617584 241.30281342 9.00630188 241.07206726 C9.98004257 240.83558975 10.95378326 240.59911224 11.95703125 240.35546875 C12.96980637 240.10380447 13.98258148 239.8521402 15.02604675 239.59284973 C18.28660441 238.78445849 21.54949974 237.98596799 24.8125 237.1875 C26.9383058 236.66143228 29.06395865 236.13474607 31.18945312 235.60742188 C42.89451493 232.71024937 54.61607491 229.88562179 66.34936523 227.10522461 C70.37449472 226.15077447 74.39515028 225.1795168 78.4140625 224.19921875 C79.46078125 223.94462891 80.5075 223.69003906 81.5859375 223.42773438 C83.68284588 222.91698355 85.77916603 222.40381376 87.875 221.88867188 C88.89851563 221.64052734 89.92203125 221.39238281 90.9765625 221.13671875 C91.87455566 220.91717529 92.77254883 220.69763184 93.69775391 220.47143555 C96 220 96 220 99 220 C99 156.31 99 92.62 99 27 C95.37 26.34 91.74 25.68 88 25 C84.68219781 24.22059184 81.38441528 23.41830587 78.0859375 22.56640625 C77.16826096 22.33241623 76.25058441 22.09842621 75.30509949 21.85734558 C72.32732464 21.09652515 69.35111283 20.32979377 66.375 19.5625 C64.30201743 19.03086412 62.22901918 18.4992894 60.15600586 17.96777344 C40.0618063 12.80304361 20.02228805 7.43603258 0 2 C0 1.34 0 0.68 0 0 Z " fill="#4E5754" transform="translate(109,10)"/>
<path d="M0 0 C6 1 6 1 8 2 C8 47.87 8 93.74 8 141 C5.36 141 2.72 141 0 141 C0 94.47 0 47.94 0 0 Z " fill="#D8A383" transform="translate(274,51)"/>
<path d="M0 0 C0.66 0 1.32 0 2 0 C2 50.49 2 100.98 2 153 C10.58 153.66 19.16 154.32 28 155 C29.32 155.33 30.64 155.66 32 156 C32 156.66 32 157.32 32 158 C23.76415095 158.14826404 15.65839516 157.6938573 7.453125 157.01171875 C6.17557343 156.90880524 4.89802185 156.80589172 3.58175659 156.69985962 C0.17188447 156.42473702 -3.23748296 156.14379512 -6.6467514 155.86130142 C-8.76034354 155.68664526 -10.87407088 155.51372863 -12.987854 155.34140015 C-30.35723017 153.92502024 -47.71878066 152.4619978 -65.0546875 150.67578125 C-71.50776072 150.02203162 -77.97012044 149.4915915 -84.43408203 148.95776367 C-86.10411034 148.81925114 -86.10411034 148.81925114 -87.80787659 148.67794037 C-90.53854831 148.45152099 -93.26925663 148.22555341 -96 148 C-96.02345753 132.48262401 -96.04104189 116.96524936 -96.05181217 101.44785976 C-96.05694799 94.24135683 -96.06393839 87.03486496 -96.07543945 79.82836914 C-96.08546982 73.54035101 -96.09187312 67.25234091 -96.09408849 60.964315 C-96.09538155 57.64108083 -96.09891829 54.31788765 -96.10573006 50.99465752 C-96.1581055 24.36655763 -96.1581055 24.36655763 -95 12 C-94.67 12 -94.34 12 -94 12 C-93.67 55.89 -93.34 99.78 -93 145 C-79.14 145.99 -65.28 146.98 -51 148 C-51 101.47 -51 54.94 -51 7 C-50.67 7 -50.34 7 -50 7 C-50 53.86 -50 100.72 -50 149 C-39.605 149.495 -39.605 149.495 -29 150 C-24.8456548 150.30230596 -20.70796378 150.61743377 -16.5625 151 C-15.61052734 151.0825 -14.65855469 151.165 -13.67773438 151.25 C-9.05057729 151.66331201 -4.59798621 152.23366897 0 153 C0 102.51 0 52.02 0 0 Z " fill="#EAEDEA" transform="translate(380,44)"/>
<path d="M0 0 C0 49.5 0 99 0 150 C-9.17546064 149.38830262 -18.33795924 148.76549688 -27.5 148 C-28.51835937 147.9175 -29.53671875 147.835 -30.5859375 147.75 C-31.57851563 147.6675 -32.57109375 147.585 -33.59375 147.5 C-34.46708984 147.4278125 -35.34042969 147.355625 -36.24023438 147.28125 C-39.50449609 146.94858639 -42.75180847 146.46402736 -46 146 C-46 99.8 -46 53.6 -46 6 C-8.8 0 -8.8 0 0 0 Z M-14.9375 3.875 C-21.43275975 4.93621857 -27.93501099 5.75702395 -34.46875 6.53515625 C-37.32943623 6.91172888 -40.17066659 7.43413332 -43 8 C-43 52.88 -43 97.76 -43 144 C-22.19751894 146.31603031 -22.19751894 146.31603031 -2 146 C-2 98.81 -2 51.62 -2 3 C-6.73523632 3 -10.40833324 3.10129214 -14.9375 3.875 Z " fill="#E2E5E4" transform="translate(378,45)"/>
<path d="M0 0 C0 21.45 0 42.9 0 65 C-0.66 65 -1.32 65 -2 65 C-2 44.54 -2 24.08 -2 3 C-18.335 4.98 -18.335 4.98 -35 7 C-35.33 48.91 -35.66 90.82 -36 134 C-31.71 134 -27.42 134 -23 134 C-16.07 134.66 -9.14 135.32 -2 136 C-2 114.55 -2 93.1 -2 71 C-1.34 71 -0.68 71 0 71 C0 93.11 0 115.22 0 138 C-20.70608108 138 -20.70608108 138 -29.625 137 C-30.54539062 136.90460938 -31.46578125 136.80921875 -32.4140625 136.7109375 C-34.61024574 136.48216841 -36.80528106 136.24241471 -39 136 C-39.02332863 118.93699413 -39.04097899 101.87399322 -39.05181217 84.81097507 C-39.05697521 76.88887055 -39.06401805 68.96677591 -39.07543945 61.04467773 C-39.08538606 54.14225363 -39.09185337 47.23983669 -39.09408849 40.33740562 C-39.09539564 36.68039339 -39.09848174 33.02340164 -39.10573006 29.36639595 C-39.11374348 25.29055994 -39.11399115 21.21475987 -39.11352539 17.13891602 C-39.11712067 15.91756454 -39.12071594 14.69621307 -39.12442017 13.43785095 C-39.1230455 12.33422211 -39.12167084 11.23059326 -39.12025452 10.09352112 C-39.12117631 9.12840386 -39.1220981 8.16328661 -39.12304783 7.16892338 C-39 5 -39 5 -38 4 C-35.88146753 3.62838393 -33.75257754 3.31553672 -31.62109375 3.02734375 C-30.65285423 2.8962899 -30.65285423 2.8962899 -29.66505432 2.7625885 C-28.29253179 2.57811583 -26.91971196 2.39584414 -25.54663086 2.21557617 C-23.46953257 1.9417233 -21.39397442 1.65789639 -19.31835938 1.37304688 C-17.98185249 1.19469953 -16.64526602 1.01694733 -15.30859375 0.83984375 C-14.10001709 0.67863037 -12.89144043 0.51741699 -11.64624023 0.35131836 C-7.78029752 -0.02116852 -3.88384598 0 0 0 Z " fill="#C4C9C7" transform="translate(327,52)"/>
<path d="M0 0 C7.59 0 15.18 0 23 0 C23 11.55 23 23.1 23 35 C15.41 35 7.82 35 0 35 C0 23.45 0 11.9 0 0 Z " fill="#FAFBF8" transform="translate(389,83)"/>
<path d="M0 0 C0 11.22 0 22.44 0 34 C-4.021875 34.495 -4.021875 34.495 -8.125 35 C-9.37434326 35.15662109 -9.37434326 35.15662109 -10.64892578 35.31640625 C-11.3242334 35.39761719 -11.99954102 35.47882813 -12.6953125 35.5625 C-13.37609863 35.64628906 -14.05688477 35.73007813 -14.75830078 35.81640625 C-17.5112603 36.0418719 -20.23913915 36.02764316 -23 36 C-23.0246519 31.17619198 -23.04283693 26.35242033 -23.05493164 21.52856445 C-23.05997174 19.88630536 -23.06680378 18.24405077 -23.07543945 16.60180664 C-23.08751926 14.24624521 -23.09323139 11.89074291 -23.09765625 9.53515625 C-23.10281754 8.79660904 -23.10797882 8.05806183 -23.11329651 7.2971344 C-23.1134925 5.53101912 -23.06194719 3.76502854 -23 2 C-19.18413116 -1.81586884 -2.97042682 0 0 0 Z " fill="#FAFAF8" transform="translate(412,46)"/>
<path d="M0 0 C11 0 11 0 23 1 C23 12.22 23 23.44 23 35 C20.133125 35.020625 17.26625 35.04125 14.3125 35.0625 C13.41829346 35.071604 12.52408691 35.08070801 11.6027832 35.09008789 C10.88437256 35.09258545 10.16596191 35.09508301 9.42578125 35.09765625 C8.69786377 35.10289307 7.96994629 35.10812988 7.2199707 35.11352539 C5 35 5 35 0 34 C0 22.78 0 11.56 0 0 Z " fill="#FAFBF8" transform="translate(389,157)"/>
<path d="M0 0 C0 50.82 0 101.64 0 154 C-16.69417218 153.07254599 -33.35308043 151.56064871 -50 150 C-50 102.48 -50 54.96 -50 6 C-26.24277457 2.43641618 -26.24277457 2.43641618 -17.6875 1.3125 C-16.2653418 1.11817383 -16.2653418 1.11817383 -14.81445312 0.91992188 C-13.88955078 0.79810547 -12.96464844 0.67628906 -12.01171875 0.55078125 C-11.21209717 0.44419189 -10.41247559 0.33760254 -9.58862305 0.2277832 C-6.40381973 -0.05246027 -3.19710941 0 0 0 Z M-18.078125 3.05859375 C-18.81198425 3.1672023 -19.54584351 3.27581085 -20.30194092 3.38771057 C-21.8384186 3.61619355 -23.37449057 3.84742057 -24.91015625 4.08129883 C-27.25694057 4.43855658 -29.60486195 4.7873735 -31.953125 5.13476562 C-33.45319783 5.3588881 -34.95320047 5.58348092 -36.453125 5.80859375 C-37.15109192 5.91280136 -37.84905884 6.01700897 -38.56817627 6.12437439 C-41.77341584 6.61417472 -44.84890402 7.21222601 -48 8 C-48 54.2 -48 100.4 -48 148 C-38.61048611 149.25193519 -29.36079398 150.41226481 -19.9375 151.125 C-18.32584961 151.25455078 -18.32584961 151.25455078 -16.68164062 151.38671875 C-11.74900232 151.77155617 -6.95949557 152 -2 152 C-2 102.5 -2 53 -2 2 C-7.59580732 2 -12.61960937 2.21804673 -18.078125 3.05859375 Z " fill="#495052" transform="translate(380,43)"/>
<path d="M0 0 C1.41381367 -0.01164673 2.82765572 -0.01987236 4.24150085 -0.02670288 C5.02882945 -0.0316596 5.81615805 -0.03661633 6.62734509 -0.04172325 C10.24134147 0.02182905 13.76021349 0.49989923 17.33203125 1.0234375 C18.46882576 1.18279282 18.46882576 1.18279282 19.62858582 1.34536743 C22.02408374 1.68280489 24.41823847 2.02891179 26.8125 2.375 C28.40422166 2.59949228 29.9960182 2.82345431 31.58789062 3.046875 C33.1485052 3.26775138 34.70905431 3.48909087 36.26953125 3.7109375 C36.96681839 3.80998383 37.66410553 3.90903015 38.38252258 4.01107788 C44.60837352 4.91191499 50.78989308 5.96498218 57 7 C57 32.41 57 57.82 57 84 C10.25813729 86.52658717 10.25813729 86.52658717 1 86 C-0.7772169 84.2227831 -0.11988099 81.847528 -0.12442017 79.48136902 C-0.12082489 78.69015152 -0.11722961 77.89893402 -0.11352539 77.08374023 C-0.11367142 76.25454071 -0.11381744 75.42534119 -0.1139679 74.5710144 C-0.11326851 71.81684802 -0.10547493 69.06274839 -0.09765625 66.30859375 C-0.09579216 64.40430234 -0.09436822 62.50001045 -0.09336853 60.59571838 C-0.08954263 55.57332037 -0.07971173 50.55095108 -0.06866455 45.52856445 C-0.05845198 40.4077188 -0.05387124 35.28686852 -0.04882812 30.16601562 C-0.03808953 20.11066443 -0.02101224 10.0553346 0 0 Z M5 2 C5 29.06 5 56.12 5 84 C14.85822496 84 24.65630374 83.92329193 34.5 83.5625 C35.70914063 83.52318359 36.91828125 83.48386719 38.1640625 83.44335938 C39.33710938 83.40146484 40.51015625 83.35957031 41.71875 83.31640625 C42.75966797 83.27974854 43.80058594 83.24309082 44.87304688 83.20532227 C48.26521883 82.98258518 51.63468968 82.48075862 55 82 C55 57.91 55 33.82 55 9 C44.41593651 7.13222409 33.88286217 5.31726078 23.25 3.8125 C22.033125 3.63525391 20.81625 3.45800781 19.5625 3.27539062 C18.39203125 3.10845703 17.2215625 2.94152344 16.015625 2.76953125 C14.45763184 2.54680542 14.45763184 2.54680542 12.86816406 2.31958008 C9.65277754 1.90771839 9.65277754 1.90771839 5 2 Z " fill="#575B55" transform="translate(124,68)"/>
<path d="M0 0 C0 11.55 0 23.1 0 35 C-7.26 35 -14.52 35 -22 35 C-22 23.78 -22 12.56 -22 1 C-7 0 -7 0 0 0 Z " fill="#FEFEFC" transform="translate(412,120)"/>
<path d="M0 0 C0 0.66 0 1.32 0 2 C-20.78025947 5.30317439 -41.57270183 8.40185474 -62.4375 11.125 C-75.05609592 12.7722206 -87.63234224 14.4798946 -100.17114258 16.66357422 C-106.80664818 17.81805732 -113.45307463 18.82846335 -120.125 19.75 C-121.03306396 19.87785889 -121.94112793 20.00571777 -122.87670898 20.13745117 C-127.28766822 20.73320947 -131.5362306 21.14635309 -136 21 C-136 21.66 -136 22.32 -136 23 C-137.32 22.67 -138.64 22.34 -140 22 C-140 69.19 -140 116.38 -140 165 C-138.35 165 -136.7 165 -135 165 C-135.99 165.99 -135.99 165.99 -137 167 C-134.77734889 168.11132555 -133.2759175 168.24568113 -130.80737305 168.44946289 C-129.94102737 168.52386093 -129.0746817 168.59825897 -128.18208313 168.6749115 C-127.23898788 168.75254227 -126.29589264 168.83017303 -125.32421875 168.91015625 C-117.40147157 169.595583 -109.48948318 170.33945495 -101.58203125 171.18359375 C-100.6301593 171.2848053 -99.67828735 171.38601685 -98.6975708 171.49029541 C-96.74071016 171.69864609 -94.78388264 171.90730799 -92.8270874 172.11627197 C-75.96198252 173.91338171 -59.09651736 175.57684916 -42.19335938 176.96972656 C-28.11038419 178.13298929 -14.055548 179.54371724 0 181 C0 181.66 0 182.32 0 183 C-7.3088419 183.14306792 -14.46176483 182.71373795 -21.734375 182.01171875 C-22.83692123 181.90894119 -23.93946747 181.80616364 -25.07542419 181.70027161 C-28.63406557 181.36727529 -32.19202809 181.02756843 -35.75 180.6875 C-38.22563915 180.45412811 -40.70130666 180.22105679 -43.17700195 179.98828125 C-57.40004507 178.64691994 -71.61930104 177.27092615 -85.83203125 175.82421875 C-97.67646924 174.62137857 -109.52627745 173.47220146 -121.375 172.3125 C-123.71508865 172.08334105 -126.05517655 171.85417456 -128.39526367 171.625 C-133.93014626 171.08303146 -139.46505961 170.54137793 -145 170 C-145.33 168.35 -145.66 166.7 -146 165 C-144.35 165 -142.7 165 -141 165 C-141 117.15 -141 69.3 -141 20 C-138.86127828 18.93063914 -137.29099877 18.67654475 -134.92895508 18.35498047 C-133.65245842 18.17835876 -133.65245842 18.17835876 -132.35017395 17.99816895 C-130.94900581 17.80958313 -130.94900581 17.80958313 -129.51953125 17.6171875 C-128.54034225 17.48227905 -127.56115326 17.34737061 -126.55229187 17.20837402 C-124.42421256 16.91525514 -122.29593265 16.62358988 -120.16748047 16.33319092 C-114.46069798 15.55381353 -108.75567764 14.76179976 -103.05078125 13.96875 C-101.87915436 13.80595551 -100.70752747 13.64316101 -99.50039673 13.47543335 C-87.82283809 11.84669083 -76.16019261 10.12315645 -64.5 8.375 C-62.55176308 8.08370497 -60.60352094 7.79244494 -58.65527344 7.5012207 C-50.52101775 6.2839491 -42.38780716 5.06005131 -34.25637817 3.82403564 C-31.09214522 3.3441079 -27.92725758 2.86860661 -24.76220703 2.394104 C-23.32127774 2.17688511 -21.88066952 1.95752305 -20.44042969 1.73577881 C-13.57507757 0.67876575 -6.95335629 -0.29008945 0 0 Z " fill="#56514B" transform="translate(413,28)"/>
<path d="M0 0 C5.94 0 11.88 0 18 0 C18 10.89 18 21.78 18 33 C12.06 33 6.12 33 0 33 C0 22.11 0 11.22 0 0 Z " fill="#F7F8F8" transform="translate(337,121)"/>
<path d="M0 0 C0 10.89 0 21.78 0 33 C-5.94 33 -11.88 33 -18 33 C-18 22.44 -18 11.88 -18 1 C-12.6251615 -1.68741925 -6.00925213 0 0 0 Z " fill="#F7F8F8" transform="translate(355,87)"/>
<path d="M0 0 C5.94 0 11.88 0 18 0 C18 10.56 18 21.12 18 32 C6 32 6 32 0 31 C0 20.77 0 10.54 0 0 Z " fill="#FAFAFA" transform="translate(337,156)"/>
<path d="M0 0 C0 10.56 0 21.12 0 32 C-5.94 32.33 -11.88 32.66 -18 33 C-18 22.44 -18 11.88 -18 1 C-8 0 -8 0 0 0 Z " fill="#F9FAFA" transform="translate(355,53)"/>
<path d="M0 0 C0 0.99 0 1.98 0 3 C-12.375 4.98 -12.375 4.98 -25 7 C-25 54.85 -25 102.7 -25 152 C-12.625 153.485 -12.625 153.485 0 155 C0 155.66 0 156.32 0 157 C-2.02048588 157.05603813 -4.04148004 157.09366636 -6.0625 157.125 C-7.18785156 157.14820313 -8.31320312 157.17140625 -9.47265625 157.1953125 C-16.01668866 156.91299876 -22.50733912 155.86568812 -29 155 C-29 134.54 -29 114.08 -29 93 C-28.34 93 -27.68 93 -27 93 C-27 87.39 -27 81.78 -27 76 C-27.66 76 -28.32 76 -29 76 C-29 52.24 -29 28.48 -29 4 C-9 0 -9 0 0 0 Z " fill="#FAFBF9" transform="translate(413,40)"/>
<path d="M0 0 C5.61 0 11.22 0 17 0 C17 10.89 17 21.78 17 33 C11.39 33 5.78 33 0 33 C0 22.11 0 11.22 0 0 Z " fill="#FBFCFC" transform="translate(357,156)"/>
<path d="M0 0 C5.61 0 11.22 0 17 0 C17 10.89 17 21.78 17 33 C11.39 33 5.78 33 0 33 C0 22.11 0 11.22 0 0 Z " fill="#FEFEFE" transform="translate(357,121)"/>
<path d="M0 0 C5.61 0 11.22 0 17 0 C17 10.89 17 21.78 17 33 C11.39 33 5.78 33 0 33 C0 22.11 0 11.22 0 0 Z " fill="#FDFDFD" transform="translate(357,86)"/>
<path d="M0 0 C0 10.89 0 21.78 0 33 C-5.38516481 34.79505494 -11.32353788 34 -17 34 C-17 23.44 -17 12.88 -17 2 C-14.64455335 0.82227668 -12.8067804 0.6848983 -10.1875 0.4375 C-9.33542969 0.35371094 -8.48335938 0.26992188 -7.60546875 0.18359375 C-5.07584633 0.00534449 -2.53589479 0 0 0 Z " fill="#FCFCFC" transform="translate(374,50)"/>
<path d="M0 0 C0 23.43 0 46.86 0 71 C-0.33 71 -0.66 71 -1 71 C-1 59.78 -1 48.56 -1 37 C-5.455 37.495 -5.455 37.495 -10 38 C-13.3 38 -16.6 38 -20 38 C-20 49.22 -20 60.44 -20 72 C-17.36 72 -14.72 72 -12 72 C-12 72.33 -12 72.66 -12 73 C-14.64 73 -17.28 73 -20 73 C-20 82.9 -20 92.8 -20 103 C-20.33 103 -20.66 103 -21 103 C-21 93.1 -21 83.2 -21 73 C-23.92875 73.12375 -26.8575 73.2475 -29.875 73.375 C-30.79651855 73.40899902 -31.71803711 73.44299805 -32.66748047 73.47802734 C-33.75633545 73.53144287 -33.75633545 73.53144287 -34.8671875 73.5859375 C-35.98262939 73.63306885 -35.98262939 73.63306885 -37.12060547 73.68115234 C-39.24010974 73.85419551 -39.24010974 73.85419551 -41 76 C-41 52.57 -41 29.14 -41 5 C-35.1887652 3.70861449 -29.84802045 2.6278913 -24 1.9375 C-23.30720947 1.85516113 -22.61441895 1.77282227 -21.90063477 1.68798828 C-19.93414679 1.45533596 -17.96708909 1.22751389 -16 1 C-15.08089844 0.88527344 -14.16179687 0.77054688 -13.21484375 0.65234375 C-8.7228004 0.1052853 -4.57195401 0 0 0 Z M-12.1875 2.4375 C-13.47720703 2.55931641 -13.47720703 2.55931641 -14.79296875 2.68359375 C-17.03653763 2.88670314 -17.03653763 2.88670314 -19 4 C-19 14.56 -19 25.12 -19 36 C-10.35435134 36.39752747 -10.35435134 36.39752747 -2 35 C-2 24.11 -2 13.22 -2 2 C-5.4877054 2 -8.73859977 2.09834945 -12.1875 2.4375 Z M-39 6 C-39 16.56 -39 27.12 -39 38 C-33.06 37.67 -27.12 37.34 -21 37 C-21 26.44 -21 15.88 -21 5 C-29.34826302 4.86732837 -29.34826302 4.86732837 -39 6 Z M-39 40 C-39 50.56 -39 61.12 -39 72 C-33.06 72 -27.12 72 -21 72 C-21 61.11 -21 50.22 -21 39 C-30.31720681 38.15629038 -30.31720681 38.15629038 -39 40 Z " fill="#4D575A" transform="translate(376,48)"/>
<path d="M0 0 C0 22.11 0 44.22 0 67 C-0.33 67 -0.66 67 -1 67 C-1 45.55 -1 24.1 -1 2 C-19.81 4.475 -19.81 4.475 -39 7 C-39.33 50.23 -39.66 93.46 -40 138 C-35.71 138 -31.42 138 -27 138 C-18.42 138.66 -9.84 139.32 -1 140 C-1 117.89 -1 95.78 -1 73 C-1.66 73 -2.32 73 -3 73 C-3 87.52 -3 102.04 -3 117 C-3.33 117 -3.66 117 -4 117 C-4 113.04 -4 109.08 -4 105 C-7.63 105 -11.26 105 -15 105 C-15 104.67 -15 104.34 -15 104 C-11.37 104 -7.74 104 -4 104 C-4.495 93.605 -4.495 93.605 -5 83 C-5.66 83 -6.32 83 -7 83 C-7.05422947 81.5629191 -7.09289723 80.12524538 -7.125 78.6875 C-7.14820313 77.88699219 -7.17140625 77.08648437 -7.1953125 76.26171875 C-7 74 -7 74 -5 71 C-3.35 71 -1.7 71 0 71 C0 94.43 0 117.86 0 142 C-13.68291717 142 -27.35738606 141.04943184 -41 140 C-41 95.45 -41 50.9 -41 5 C-38.43992468 3.71996234 -36.35836007 3.74298923 -33.5 3.5625 C-28.67454529 3.19929373 -24.09592283 2.48956585 -19.37109375 1.4765625 C-12.83656206 0.16319699 -6.69553074 0 0 0 Z " fill="#2F383A" transform="translate(328,50)"/>
<path d="M0 0 C0 0.66 0 1.32 0 2 C-2.70612071 2.90204024 -4.8530608 3.266216 -7.66796875 3.53515625 C-8.47258545 3.61386963 -9.27720215 3.69258301 -10.10620117 3.77368164 C-11.12302979 3.8689917 -12.1398584 3.96430176 -13.1875 4.0625 C-18.0446875 4.5265625 -18.0446875 4.5265625 -23 5 C-23.33 16.22 -23.66 27.44 -24 39 C-21.03 38.505 -21.03 38.505 -18 38 C-16.4936178 37.92671399 -14.98468675 37.89141531 -13.4765625 37.90234375 C-12.68378906 37.90556641 -11.89101563 37.90878906 -11.07421875 37.91210938 C-10.26597656 37.92048828 -9.45773437 37.92886719 -8.625 37.9375 C-7.37783203 37.94426758 -7.37783203 37.94426758 -6.10546875 37.95117188 C-4.07028103 37.96286836 -2.03513077 37.98080065 0 38 C0 38.33 0 38.66 0 39 C-5.17295761 40.06305116 -10.12504306 40.1165001 -15.375 40.0625 C-19.644375 40.0315625 -19.644375 40.0315625 -24 40 C-24 51.55 -24 63.1 -24 75 C-16.08 75 -8.16 75 0 75 C0 75.66 0 76.32 0 77 C-7.92 77 -15.84 77 -24 77 C-24 88.88 -24 100.76 -24 113 C-16.08 113 -8.16 113 0 113 C0 113.33 0 113.66 0 114 C-7.92 114 -15.84 114 -24 114 C-24 125.22 -24 136.44 -24 148 C-18.72076257 148.28746352 -18.72076257 148.28746352 -13.44116211 148.56811523 C-8.9094886 148.82478887 -4.48360398 149.29143576 0 150 C0 150.33 0 150.66 0 151 C-2.85423192 151.02718316 -5.70820015 151.04692705 -8.5625 151.0625 C-9.36236328 151.07087891 -10.16222656 151.07925781 -10.98632812 151.08789062 C-15.76749038 151.10740557 -20.29534233 150.88405525 -25 150 C-26.75697255 148.24302745 -26.12614114 145.76615866 -26.12698364 143.38171387 C-26.12980347 142.16173203 -26.13262329 140.94175018 -26.13552856 139.68479919 C-26.13358397 138.32046494 -26.13153578 136.95613083 -26.12939453 135.59179688 C-26.13074854 134.16471817 -26.13252846 132.73763982 -26.13470459 131.31056213 C-26.13927902 127.42430585 -26.13748933 123.538076 -26.1343255 119.65181923 C-26.13180195 115.5936844 -26.13413943 111.53555191 -26.13571167 107.47741699 C-26.13753338 100.66121004 -26.13512702 93.84501391 -26.13037109 87.02880859 C-26.12492847 79.13705755 -26.12669113 71.24533233 -26.1321975 63.35358191 C-26.13672859 56.5901179 -26.1373792 49.82666169 -26.13475883 43.06319666 C-26.13319603 39.018318 -26.13300236 34.9734515 -26.13629532 30.92857361 C-26.13917397 27.12671125 -26.13719845 23.32488234 -26.13140106 19.52302361 C-26.13007343 18.12374362 -26.13046763 16.72446085 -26.13266373 15.32518196 C-26.13537508 13.42288434 -26.13138054 11.5205806 -26.12698364 9.61828613 C-26.12660662 8.55122688 -26.12622959 7.48416763 -26.12584114 6.38477325 C-26 4 -26 4 -25 3 C-23.57629039 2.70392044 -22.14112217 2.462372 -20.703125 2.24609375 C-19.8265625 2.11396484 -18.95 1.98183594 -18.046875 1.84570312 C-17.12390625 1.71099609 -16.2009375 1.57628906 -15.25 1.4375 C-13.88875 1.22963867 -13.88875 1.22963867 -12.5 1.01757812 C-8.28222543 0.39169491 -4.27268741 -0.07545061 0 0 Z " fill="#4C5556" transform="translate(413,43)"/>
<path d="M0 0 C0 0.66 0 1.32 0 2 C-2.91580509 2.48495085 -5.83248754 2.96301802 -8.75 3.4375 C-9.55566406 3.57220703 -10.36132812 3.70691406 -11.19140625 3.84570312 C-17.82757077 4.91689504 -24.24463495 5.43705291 -31 6 C-31.33 53.19 -31.66 100.38 -32 149 C-32.33 149 -32.66 149 -33 149 C-33 102.14 -33 55.28 -33 7 C-46.69831674 8.12569186 -46.69831674 8.12569186 -60 11 C-64.62 11.33 -69.24 11.66 -74 12 C-74 56.22 -74 100.44 -74 146 C-74.33 146 -74.66 146 -75 146 C-75.33 107.06 -75.66 68.12 -76 28 C-76.33 28 -76.66 28 -77 28 C-77 22.06 -77 16.12 -77 10 C-29.95837338 2.88477879 -29.95837338 2.88477879 -15.4375 1.0625 C-14.52677734 0.94672607 -13.61605469 0.83095215 -12.67773438 0.71166992 C-8.42270328 0.19728431 -4.29595176 -0.11836496 0 0 Z " fill="#B4AAA0" transform="translate(361,43)"/>
<path d="M0 0 C0 0.66 0 1.32 0 2 C-4.08250882 2.67178263 -8.16613117 3.33653942 -12.25 4 C-13.98830078 4.28617188 -13.98830078 4.28617188 -15.76171875 4.578125 C-16.87675781 4.75859375 -17.99179687 4.9390625 -19.140625 5.125 C-20.68024902 5.37636719 -20.68024902 5.37636719 -22.25097656 5.6328125 C-25 6 -25 6 -29 6 C-29 29.76 -29 53.52 -29 78 C-28.34 78 -27.68 78 -27 78 C-27 83.61 -27 89.22 -27 95 C-27.66 95 -28.32 95 -29 95 C-29 115.46 -29 135.92 -29 157 C-24.05 157.33 -19.1 157.66 -14 158 C-11.34902398 158.31335955 -8.70057599 158.6545501 -6.0625 159.0625 C-4.89847656 159.23910156 -3.73445313 159.41570312 -2.53515625 159.59765625 C-1.69855469 159.73042969 -0.86195313 159.86320313 0 160 C0 160.33 0 160.66 0 161 C-23.91129032 161.36290323 -23.91129032 161.36290323 -31 159 C-31 107.85 -31 56.7 -31 4 C-24.49609115 2.81747112 -18.10608897 1.66307291 -11.5625 0.875 C-10.88251953 0.78863281 -10.20253906 0.70226563 -9.50195312 0.61328125 C-6.29353096 0.21810902 -3.24050756 0 0 0 Z " fill="#2B3436" transform="translate(413,38)"/>
<path d="M0 0 C2.31352147 0.21229457 4.62723234 0.42243742 6.940979 0.63226318 C14.32815008 1.30245081 21.71518454 1.97406899 29.10162354 2.65228271 C46.76138211 4.27089363 64.43114195 5.756223 82.10650635 7.19329834 C82.10650635 7.52329834 82.10650635 7.85329834 82.10650635 8.19329834 C81.48606445 8.18282471 80.86562256 8.17235107 80.22637939 8.16156006 C77.41562957 8.11998948 74.60494445 8.09396901 71.79400635 8.06829834 C70.32930908 8.04316162 70.32930908 8.04316162 68.83502197 8.01751709 C67.897229 8.01107178 66.95943604 8.00462646 65.9932251 7.99798584 C64.69711304 7.98227539 64.69711304 7.98227539 63.37481689 7.96624756 C60.82469914 8.04239666 60.82469914 8.04239666 58.10650635 10.19329834 C55.26715088 10.2555542 55.26715088 10.2555542 51.61431885 9.97064209 C50.58300339 9.89329079 50.58300339 9.89329079 49.53085327 9.81437683 C47.05463938 9.62219798 44.58076759 9.40915727 42.10650635 9.19329834 C41.12516724 9.10944885 40.14382813 9.02559937 39.13275146 8.93920898 C32.28501987 8.35031408 25.44065087 7.7283812 18.597229 7.0914917 C14.9822159 6.75586422 11.36666477 6.42653352 7.7510376 6.09759521 C-2.5091916 5.15356972 -12.72397763 4.18811076 -22.90960693 2.61981201 C-28.17450061 1.86725357 -33.46747841 1.47402222 -38.76849365 1.06829834 C-39.85001709 0.98193115 -40.93154053 0.89556396 -42.0458374 0.80657959 C-44.66144186 0.59825711 -47.27728402 0.39385077 -49.89349365 0.19329834 C-49.89349365 -0.13670166 -49.89349365 -0.46670166 -49.89349365 -0.80670166 C-33.47078059 -3.52929998 -16.45545737 -1.51224 0 0 Z " fill="#CCA186" transform="translate(318.89349365234375,195.80670166015625)"/>
<path d="M0 0 C-0.33 1.32 -0.66 2.64 -1 4 C-3.76729113 4.38929252 -6.53458422 4.77857115 -9.30187988 5.16783142 C-11.81327894 5.52111232 -14.32467195 5.87443624 -16.83605957 6.22779846 C-23.20218225 7.12346681 -29.5683773 8.01861111 -35.93485355 8.91176319 C-39.62327 9.42921245 -43.31164427 9.94696192 -47 10.46484375 C-47.74523359 10.56947371 -48.49046719 10.67410366 -49.25828362 10.78190422 C-59.38084086 12.20365883 -69.50110294 13.64064734 -79.61950493 15.09166336 C-84.1554607 15.74133887 -88.69205007 16.38658105 -93.22854614 17.0324707 C-95.68888997 17.38406696 -98.14891725 17.73788587 -100.60861206 18.09399414 C-104.03907486 18.59044877 -107.47055358 19.07922478 -110.90234375 19.56640625 C-111.89963501 19.71284073 -112.89692627 19.85927521 -113.92443848 20.01014709 C-129.25609269 22.16260487 -129.25609269 22.16260487 -134 19 C-124.96153551 17.30978317 -115.92122648 15.80686661 -106.8046875 14.6015625 C-96.26486145 13.18546013 -85.74147692 11.67051851 -75.22012329 10.12380981 C-70.0417602 9.36311054 -64.86263277 8.60764379 -59.68359375 7.8515625 C-58.63362717 7.69822952 -57.58366058 7.54489655 -56.50187683 7.38691711 C-53.33460953 6.9244401 -50.16731223 6.46216922 -47 6 C-45.96852844 5.84946167 -44.93705688 5.69892334 -43.87432861 5.54382324 C-37.94213766 4.67862181 -32.00939061 3.81741314 -26.07580566 2.96182251 C-24.2452975 2.69729762 -22.41497193 2.43150589 -20.58483887 2.16439819 C-18.05311928 1.79508455 -15.52080033 1.43019104 -12.98828125 1.06640625 C-12.24780045 0.95738983 -11.50731964 0.84837341 -10.74440002 0.73605347 C-7.13407606 0.22240486 -3.64780692 -0.12151938 0 0 Z " fill="#CBA38A" transform="translate(412,30)"/>
<path d="M0 0 C0 10.23 0 20.46 0 31 C-4.62 31 -9.24 31 -14 31 C-14 21.1 -14 11.2 -14 1 C-5 0 -5 0 0 0 Z " fill="#FBFCFB" transform="translate(323,89)"/>
<path d="M0 0 C0 9.9 0 19.8 0 30 C-5 31 -5 31 -14 31 C-14 21.1 -14 11.2 -14 1 C-6 0 -6 0 0 0 Z " fill="#FBFBFB" transform="translate(323,57)"/>
<path d="M0 0 C4.62 0 9.24 0 14 0 C14 9.9 14 19.8 14 30 C9.38 30 4.76 30 0 30 C0 20.1 0 10.2 0 0 Z " fill="#FDFDFD" transform="translate(293,123)"/>
<path d="M0 0 C4.62 0 9.24 0 14 0 C14 9.9 14 19.8 14 30 C9.38 30 4.76 30 0 30 C0 20.1 0 10.2 0 0 Z " fill="#FCFCFC" transform="translate(293,91)"/>
<path d="M0 0 C0.33 0 0.66 0 1 0 C1 23.1 1 46.2 1 70 C-6.875 71.125 -6.875 71.125 -10.65014648 71.11352539 C-11.49048935 71.11344986 -12.33083221 71.11337433 -13.19664001 71.11329651 C-14.07920975 71.10813522 -14.96177948 71.10297394 -15.87109375 71.09765625 C-17.25458763 71.09553383 -17.25458763 71.09553383 -18.66603088 71.09336853 C-21.58988798 71.08780506 -24.51366635 71.07525942 -27.4375 71.0625 C-29.42903535 71.05748028 -31.4205719 71.0529182 -33.41210938 71.04882812 C-38.27476956 71.03784762 -43.13737147 71.02060839 -48 71 C-48 66.05 -48 61.1 -48 56 C-47.01 55.505 -47.01 55.505 -46 55 C-44.71682108 58.84953676 -44.93356363 61.94738135 -45 66 C-39.06 65.505 -39.06 65.505 -33 65 C-33 64.67 -33 64.34 -33 64 C-28.95834861 63.97084269 -24.9167245 63.95314827 -20.875 63.9375 C-19.16183594 63.92493164 -19.16183594 63.92493164 -17.4140625 63.91210938 C-16.30546875 63.90888672 -15.196875 63.90566406 -14.0546875 63.90234375 C-13.03874512 63.89710693 -12.02280273 63.89187012 -10.97607422 63.88647461 C-7.90885274 64.00347691 -5.01366866 64.43223583 -2 65 C-1.96241577 63.1123291 -1.96241577 63.1123291 -1.92407227 61.18652344 C-1.82827111 56.41513761 -1.7285084 51.64384073 -1.62768555 46.87255859 C-1.58497647 44.82668165 -1.54327263 42.78078342 -1.50268555 40.73486328 C-1.23213225 27.14039536 -0.7630657 13.57601545 0 0 Z " fill="#A58D79" transform="translate(178,80)"/>
<path d="M0 0 C6.93 0.495 6.93 0.495 14 1 C14 10.9 14 20.8 14 31 C7.07 30.505 7.07 30.505 0 30 C0 20.1 0 10.2 0 0 Z " fill="#FBFCFB" transform="translate(309,155)"/>
<path d="M0 0 C4.29 0 8.58 0 13 0 C12.67 3.96 12.34 7.92 12 12 C12.66 12 13.32 12 14 12 C14 18.27 14 24.54 14 31 C9.38 31 4.76 31 0 31 C0 20.77 0 10.54 0 0 Z " fill="#FAFAFA" transform="translate(309,122)"/>
<path d="M0 0 C0 9.9 0 19.8 0 30 C-4.62 30 -9.24 30 -14 30 C-14 20.43 -14 10.86 -14 1 C-6 0 -6 0 0 0 Z " fill="#FCFCFC" transform="translate(307,59)"/>
<path d="M0 0 C4.62 0 9.24 0 14 0 C14 9.57 14 19.14 14 29 C9.38 29 4.76 29 0 29 C0 19.43 0 9.86 0 0 Z " fill="#FDFEFD" transform="translate(293,155)"/>
<path d="M0 0 C0.33 0 0.66 0 1 0 C1.33 43.89 1.66 87.78 2 133 C15.53 133.99 29.06 134.98 43 136 C42.67 136.99 42.34 137.98 42 139 C31.4173619 138.52577801 20.8677323 137.86504841 10.3125 136.9609375 C9.21744141 136.8683667 8.12238281 136.7757959 6.99414062 136.68041992 C4.32931006 136.45495664 1.66460337 136.22813001 -1 136 C-1.02345753 120.48262401 -1.04104189 104.96524936 -1.05181217 89.44785976 C-1.05694799 82.24135683 -1.06393839 75.03486496 -1.07543945 67.82836914 C-1.08546982 61.54035101 -1.09187312 55.25234091 -1.09408849 48.964315 C-1.09538155 45.64108083 -1.09891829 42.31788765 -1.10573006 38.99465752 C-1.1581055 12.36655763 -1.1581055 12.36655763 0 0 Z " fill="#E6E2D6" transform="translate(285,56)"/>
<path d="M0 0 C1.45922693 0.11409593 2.91740598 0.24165544 4.375 0.375 C5.59316406 0.47941406 5.59316406 0.47941406 6.8359375 0.5859375 C9 1 9 1 11 3 C12.9397519 3.42299439 12.9397519 3.42299439 15.19262695 3.54711914 C16.05897263 3.61829453 16.9253183 3.68946991 17.81791687 3.76280212 C18.76101212 3.83205399 19.70410736 3.90130585 20.67578125 3.97265625 C22.69364741 4.13796357 24.71138536 4.304842 26.72900391 4.47314453 C27.77010315 4.5584845 28.81120239 4.64382446 29.8838501 4.73175049 C34.73574958 5.14941963 39.57619981 5.66297903 44.41796875 6.18359375 C46.35302475 6.38951001 48.28808338 6.59540164 50.22314453 6.80126953 C51.19656799 6.90522034 52.16999146 7.00917114 53.1729126 7.11627197 C70.03801748 8.91338171 86.90348264 10.57684916 103.80664062 11.96972656 C117.88961581 13.13298929 131.944452 14.54371724 146 16 C146 16.66 146 17.32 146 18 C138.6911581 18.14306792 131.53823517 17.71373795 124.265625 17.01171875 C123.16307877 16.90894119 122.06053253 16.80616364 120.92457581 16.70027161 C117.36593443 16.36727529 113.80797191 16.02756843 110.25 15.6875 C107.77436085 15.45412811 105.29869334 15.22105679 102.82299805 14.98828125 C88.59995493 13.64691994 74.38069896 12.27092615 60.16796875 10.82421875 C48.32353076 9.62137857 36.47372255 8.47220146 24.625 7.3125 C22.28491135 7.08334105 19.94482345 6.85417456 17.60473633 6.625 C12.06985374 6.08303146 6.53494039 5.54137793 1 5 C0.67 3.35 0.34 1.7 0 0 Z " fill="#524E49" transform="translate(267,193)"/>
<path d="M0 0 C1.31296303 0.07259285 1.31296303 0.07259285 2.65245056 0.14665222 C10.89040804 0.63005191 19.09308701 1.39443381 27.30142212 2.23223877 C47.04582874 4.24235358 66.81492843 5.83019975 86.60766602 7.28051758 C96.73582389 8.03496625 106.75471036 8.82816972 116.75390625 10.67578125 C116.75390625 11.33578125 116.75390625 11.99578125 116.75390625 12.67578125 C113.17474137 12.40165633 109.59567921 12.12621246 106.0166626 11.85015869 C104.43786196 11.72848973 102.85904383 11.60704758 101.2802124 11.48577881 C94.33339764 10.95185286 87.38717646 10.41062892 80.44140625 9.86328125 C79.34453491 9.77685364 78.24766357 9.69042603 77.11755371 9.60137939 C61.40829275 8.35665031 45.72984633 6.92834247 30.05648804 5.29586792 C14.64200068 3.69524414 -0.77344812 2.55280218 -16.24609375 1.67578125 C-16.24609375 1.34578125 -16.24609375 1.01578125 -16.24609375 0.67578125 C-10.7151121 -0.30897286 -5.59755062 -0.33486043 0 0 Z " fill="#50514E" transform="translate(297.24609375,192.32421875)"/>
<path d="M0 0 C0.33 0 0.66 0 1 0 C1 23.1 1 46.2 1 70 C0.67 70 0.34 70 0 70 C0 58.78 0 47.56 0 36 C-4.455 36.495 -4.455 36.495 -9 37 C-12.3 37 -15.6 37 -19 37 C-19 48.22 -19 59.44 -19 71 C-16.36 71 -13.72 71 -11 71 C-11 71.33 -11 71.66 -11 72 C-13.64 72 -16.28 72 -19 72 C-19 81.9 -19 91.8 -19 102 C-19.33 102 -19.66 102 -20 102 C-20 92.1 -20 82.2 -20 72 C-22.92875 72.12375 -25.8575 72.2475 -28.875 72.375 C-29.79651855 72.40899902 -30.71803711 72.44299805 -31.66748047 72.47802734 C-32.75633545 72.53144287 -32.75633545 72.53144287 -33.8671875 72.5859375 C-34.98262939 72.63306885 -34.98262939 72.63306885 -36.12060547 72.68115234 C-38.24010974 72.85419551 -38.24010974 72.85419551 -40 75 C-40 73.02 -40 71.04 -40 69 C-39.67 69.66 -39.34 70.32 -39 71 C-32.73 71 -26.46 71 -20 71 C-20 59.78 -20 48.56 -20 37 C-21.65 37 -23.3 37 -25 37 C-25 36.67 -25 36.34 -25 36 C-23.35 36 -21.7 36 -20 36 C-20 25.44 -20 14.88 -20 4 C-19.67 4 -19.34 4 -19 4 C-19 14.56 -19 25.12 -19 36 C-14.05 35.34 -9.1 34.68 -4 34 C-2.68 34 -1.36 34 0 34 C0 22.78 0 11.56 0 0 Z " fill="#333E43" transform="translate(375,49)"/>
<path d="M0 0 C1.65 0 3.3 0 5 0 C5 23.43 5 46.86 5 71 C-4.78598352 71 -14.23375443 70.83062715 -23.9375 70 C-25.10990234 69.90460938 -26.28230469 69.80921875 -27.49023438 69.7109375 C-30.32731377 69.47933918 -33.16382131 69.24233682 -36 69 C-36 68.67 -36 68.34 -36 68 C-23.72865846 64.83320218 -7.32477936 68.12886313 4 69 C4 46.89 4 24.78 4 2 C3.34 2 2.68 2 2 2 C2 16.52 2 31.04 2 46 C1.67 46 1.34 46 1 46 C1 42.04 1 38.08 1 34 C-2.63 34 -6.26 34 -10 34 C-10 33.67 -10 33.34 -10 33 C-6.37 33 -2.74 33 1 33 C0.505 22.605 0.505 22.605 0 12 C-0.66 12 -1.32 12 -2 12 C-2.05422947 10.5629191 -2.09289723 9.12524538 -2.125 7.6875 C-2.14820313 6.88699219 -2.17140625 6.08648437 -2.1953125 5.26171875 C-2 3 -2 3 0 0 Z " fill="#3F494C" transform="translate(323,121)"/>
<path d="M0 0 C0 0.66 0 1.32 0 2 C-0.94617188 2.17015625 -1.89234375 2.3403125 -2.8671875 2.515625 C-10.28024173 3.86759596 -17.65127718 5.3317921 -25 7 C-31.82008894 8.54560664 -38.65521009 9.89457137 -45.53515625 11.15234375 C-51.06180258 12.18260561 -56.56048791 13.34664114 -62.0625 14.5 C-63.09310547 14.71470947 -64.12371094 14.92941895 -65.18554688 15.15063477 C-69.68164144 16.08851665 -74.17506142 17.03420901 -78.66015625 18.0234375 C-79.98176925 18.30729903 -81.3033837 18.59115383 -82.625 18.875 C-84.28402344 19.24238281 -84.28402344 19.24238281 -85.9765625 19.6171875 C-89.23014036 20.02913922 -91.81026329 19.69925159 -95 19 C-95 18.67 -95 18.34 -95 18 C-92.79950558 17.55990112 -90.59901066 17.1198047 -88.39851379 16.67971802 C-86.4093194 16.28186878 -84.42013307 15.88397921 -82.43095398 15.48605347 C-76.8490925 14.36949393 -71.26708545 13.25367062 -65.68481445 12.13916016 C-55.72918174 10.15081027 -45.77385245 8.16148118 -35.82504272 6.13922119 C-32.14226879 5.39066862 -28.45884696 4.64533281 -24.77539062 3.90014648 C-23.05710043 3.55146326 -21.33915957 3.20105389 -19.62158203 2.84887695 C-17.24206271 2.36108715 -14.86142708 1.87914595 -12.48046875 1.3984375 C-11.44474983 1.18355179 -11.44474983 1.18355179 -10.3881073 0.96432495 C-6.87240119 0.26076939 -3.58632496 -0.15422274 0 0 Z " fill="#5E5E5B" transform="translate(309,16)"/>
<path d="M0 0 C2.97 0 5.94 0 9 0 C9.84036549 23.34249258 10.12293055 46.64319595 10 70 C3.73 70 -2.54 70 -9 70 C-9 69.67 -9 69.34 -9 69 C-3.39 69 2.22 69 8 69 C8 58.11 8 47.22 8 36 C4.7 36 1.4 36 -2 36 C-5.96 35.505 -5.96 35.505 -10 35 C-10 23.78 -10 12.56 -10 1 C-9.67 1 -9.34 1 -9 1 C-9 11.89 -9 22.78 -9 34 C-3.39 34 2.22 34 8 34 C8 23.11 8 12.22 8 1 C5.36 1 2.72 1 0 1 C0 0.67 0 0.34 0 0 Z " fill="#697176" transform="translate(366,85)"/>
<path d="M0 0 C0.33 0 0.66 0 1 0 C1 46.86 1 93.72 1 142 C3.97 142 6.94 142 10 142 C12.69907097 142.22458837 15.3171545 142.60976793 18 143 C17.67 143.66 17.34 144.32 17 145 C14.77090129 145.02714735 12.54170633 145.04646254 10.3125 145.0625 C9.07113281 145.07410156 7.82976562 145.08570313 6.55078125 145.09765625 C3.53764546 145.01478673 0.91724661 144.70839449 -2 144 C-1.67 143.01 -1.34 142.02 -1 141 C-0.89739644 139.09747837 -0.8536365 137.19158064 -0.84178162 135.28633118 C-0.8319928 134.09581146 -0.82220398 132.90529175 -0.81211853 131.67869568 C-0.80636307 130.37102737 -0.8006076 129.06335907 -0.79467773 127.71606445 C-0.78509853 126.32647409 -0.77508842 124.93688664 -0.76467896 123.54730225 C-0.73762843 119.7728255 -0.71661967 115.99833625 -0.69667697 112.22381616 C-0.67481834 108.27998081 -0.64742905 104.33618401 -0.62062073 100.39237976 C-0.57069219 92.92327325 -0.52575395 85.45414535 -0.48259836 77.98499697 C-0.43322737 69.48204079 -0.37830873 60.97912329 -0.32291877 52.47620451 C-0.20909624 34.98417209 -0.10225778 17.49210377 0 0 Z " fill="#F6FBFA" transform="translate(329,51)"/>
<path d="M0 0 C1.32 0 2.64 0 4 0 C4 0.66 4 1.32 4 2 C3.34 2 2.68 2 2 2 C2 31.04 2 60.08 2 90 C1.01 90.495 1.01 90.495 0 91 C0 60.97 0 30.94 0 0 Z " fill="#F2F4EF" transform="translate(332,51)"/>
<path d="M0 0 C0.68368652 0.09595459 1.36737305 0.19190918 2.07177734 0.29077148 C3.57809813 0.50378485 5.08360858 0.72258558 6.58837891 0.94628906 C9.24850152 1.34003131 11.91090748 1.71439886 14.57421875 2.0859375 C18.19881495 2.59415223 21.82277799 3.10618345 25.4453125 3.62890625 C26.19184082 3.73662354 26.93836914 3.84434082 27.70751953 3.95532227 C30.49711416 4.37841753 33.27939207 4.84864868 36.0625 5.3125 C35.7325 30.3925 35.4025 55.4725 35.0625 81.3125 C32.4225 81.3125 29.7825 81.3125 27.0625 81.3125 C27.0625 80.9825 27.0625 80.6525 27.0625 80.3125 C29.3725 80.3125 31.6825 80.3125 34.0625 80.3125 C34.0625 56.2225 34.0625 32.1325 34.0625 7.3125 C22.1825 5.8275 22.1825 5.8275 10.0625 4.3125 C6.05864979 3.7646759 2.05975613 3.21396769 -1.9375 2.625 C-3.27748047 2.43067383 -3.27748047 2.43067383 -4.64453125 2.23242188 C-6.74249309 1.92787903 -8.84005212 1.62056266 -10.9375 1.3125 C-6.92613708 -0.93136462 -4.57857665 -0.66623252 0 0 Z " fill="#5F605A" transform="translate(144.9375,69.6875)"/>
<path d="M0 0 C2.31 0 4.62 0 7 0 C6.01 0.495 6.01 0.495 5 1 C5 1.66 5 2.32 5 3 C3.68 2.67 2.36 2.34 1 2 C1 49.19 1 96.38 1 145 C2.65 145 4.3 145 6 145 C6 145.33 6 145.66 6 146 C3.69 146 1.38 146 -1 146 C-0.67 97.82 -0.34 49.64 0 0 Z " fill="#3B3939" transform="translate(272,48)"/>
<path d="M0 0 C0.99 0.33 1.98 0.66 3 1 C2.34 1 1.68 1 1 1 C1 21.13 1 41.26 1 62 C6.28 62 11.56 62 17 62 C17 52.43 17 42.86 17 33 C17.33 33 17.66 33 18 33 C18 42.57 18 52.14 18 62 C21.96 62 25.92 62 30 62 C30 62.33 30 62.66 30 63 C26.04 63 22.08 63 18 63 C18 72.24 18 81.48 18 91 C17.67 91 17.34 91 17 91 C17 81.76 17 72.52 17 63 C13.349375 63.185625 13.349375 63.185625 9.625 63.375 C8.86010254 63.40899902 8.09520508 63.44299805 7.30712891 63.47802734 C3.20221481 63.62219908 3.20221481 63.62219908 0 66 C0 44.22 0 22.44 0 0 Z " fill="#2A3437" transform="translate(291,59)"/>
<path d="M0 0 C0 0.99 0 1.98 0 3 C-4.29005671 3.69781246 -8.58224462 4.38150268 -12.875 5.0625 C-14.09832031 5.26166016 -15.32164062 5.46082031 -16.58203125 5.66601562 C-17.74863281 5.84970703 -18.91523438 6.03339844 -20.1171875 6.22265625 C-21.19597168 6.39547119 -22.27475586 6.56828613 -23.38623047 6.74633789 C-26 7 -26 7 -28 6 C-28 29.1 -28 52.2 -28 76 C-28.33 76 -28.66 76 -29 76 C-29 52.24 -29 28.48 -29 4 C-9 0 -9 0 0 0 Z " fill="#F1F2F2" transform="translate(413,40)"/>
<path d="M0 0 C-0.33 11.55 -0.66 23.1 -1 35 C-1.33 35 -1.66 35 -2 35 C-2 24.11 -2 13.22 -2 2 C-7.61 2.66 -13.22 3.32 -19 4 C-19 14.56 -19 25.12 -19 36 C-17.515 36.495 -17.515 36.495 -16 37 C-17.32 37 -18.64 37 -20 37 C-20 26.44 -20 15.88 -20 5 C-24.455 5.495 -24.455 5.495 -29 6 C-30.85334407 6.0590237 -32.70840019 6.08861408 -34.5625 6.0625 C-35.83287109 6.04896484 -35.83287109 6.04896484 -37.12890625 6.03515625 C-37.74636719 6.02355469 -38.36382812 6.01195312 -39 6 C-36.09976299 4.06650866 -34.9513184 3.65359502 -31.6484375 3.18359375 C-30.79636719 3.05919922 -29.94429688 2.93480469 -29.06640625 2.80664062 C-27.73416016 2.62391602 -27.73416016 2.62391602 -26.375 2.4375 C-25.51003906 2.31181641 -24.64507812 2.18613281 -23.75390625 2.05664062 C-19.60486352 1.46258728 -15.45022611 0.91242653 -11.2890625 0.41015625 C-10.6285791 0.33031494 -9.9680957 0.25047363 -9.28759766 0.16821289 C-6.19956135 -0.0588583 -3.09637361 0 0 0 Z " fill="#676F72" transform="translate(376,48)"/>
<path d="M0 0 C0 0.66 0 1.32 0 2 C-4.08250882 2.67178263 -8.16613117 3.33653942 -12.25 4 C-13.98830078 4.28617188 -13.98830078 4.28617188 -15.76171875 4.578125 C-16.87675781 4.75859375 -17.99179687 4.9390625 -19.140625 5.125 C-20.68024902 5.37636719 -20.68024902 5.37636719 -22.25097656 5.6328125 C-25 6 -25 6 -29 6 C-29 29.76 -29 53.52 -29 78 C-28.34 78 -27.68 78 -27 78 C-27 79.65 -27 81.3 -27 83 C-27.33 81.68 -27.66 80.36 -28 79 C-28.66 79 -29.32 79 -30 79 C-30.33 54.25 -30.66 29.5 -31 4 C-24.49609115 2.81747112 -18.10608897 1.66307291 -11.5625 0.875 C-10.88251953 0.78863281 -10.20253906 0.70226563 -9.50195312 0.61328125 C-6.29353096 0.21810902 -3.24050756 0 0 0 Z " fill="#585D5D" transform="translate(413,38)"/>
<path d="M0 0 C0.33 0 0.66 0 1 0 C1 10.56 1 21.12 1 32 C4.63 32 8.26 32 12 32 C12 32.33 12 32.66 12 33 C8.37 33 4.74 33 1 33 C1 43.56 1 54.12 1 65 C1.66 65.33 2.32 65.66 3 66 C1.68 66 0.36 66 -1 66 C-1.02314315 57.68998125 -1.04092518 49.37997592 -1.05181217 41.06993294 C-1.05703667 37.2114867 -1.06412649 33.35306247 -1.07543945 29.49462891 C-1.08628368 25.7728847 -1.09228011 22.0511617 -1.09487724 18.32940292 C-1.09672871 16.90759828 -1.10034403 15.48579483 -1.10573006 14.06399918 C-1.11296072 12.0766945 -1.11340823 10.08936861 -1.11352539 8.10205078 C-1.115746 6.96953888 -1.11796661 5.83702698 -1.12025452 4.67019653 C-1 2 -1 2 0 0 Z " fill="#4B5558" transform="translate(336,122)"/>
<path d="M0 0 C0.66 0 1.32 0 2 0 C1.67 23.76 1.34 47.52 1 72 C5.95 72.33 10.9 72.66 16 73 C18.65097602 73.31335955 21.29942401 73.6545501 23.9375 74.0625 C25.10152344 74.23910156 26.26554687 74.41570312 27.46484375 74.59765625 C28.30144531 74.73042969 29.13804687 74.86320312 30 75 C30 75.33 30 75.66 30 76 C22.94604715 76.10705831 15.91758378 76.03145227 8.875 75.625 C7.63492187 75.55539063 6.39484375 75.48578125 5.1171875 75.4140625 C2 75 2 75 -1 73 C-1.32279968 69.98812866 -1.32279968 69.98812866 -1.2487793 66.07177734 C-1.23946381 65.35947464 -1.23014832 64.64717194 -1.22055054 63.9132843 C-1.18611445 61.5536905 -1.13023418 59.19510964 -1.07421875 56.8359375 C-1.04619299 55.20213999 -1.0195018 53.56831909 -0.99409485 51.93447876 C-0.92356238 47.6302075 -0.83485689 43.32649344 -0.74243164 39.02264404 C-0.65134721 34.63247561 -0.57735806 30.24202328 -0.50195312 25.8515625 C-0.35141683 17.23400352 -0.18169118 8.61695812 0 0 Z " fill="#586063" transform="translate(383,123)"/>
<path d="M0 0 C0.33 0 0.66 0 1 0 C1 9.9 1 19.8 1 30 C3.97 30 6.94 30 10 30 C10 30.33 10 30.66 10 31 C7.03 31 4.06 31 1 31 C1 40.9 1 50.8 1 61 C2.65 61 4.3 61 6 61 C6 61.33 6 61.66 6 62 C3.69 62 1.38 62 -1 62 C-1.02314533 54.21151879 -1.04092629 46.4230456 -1.05181217 38.63453865 C-1.05703619 35.01822828 -1.06412515 31.40194139 -1.07543945 27.78564453 C-1.08628538 24.29731896 -1.09228047 20.80901602 -1.09487724 17.3206749 C-1.09763081 15.33862308 -1.1054401 13.3565804 -1.11329651 11.37454224 C-1.11337204 10.17344818 -1.11344757 8.97235413 -1.11352539 7.73486328 C-1.115746 6.67341095 -1.11796661 5.61195862 -1.12025452 4.51834106 C-1 2 -1 2 0 0 Z " fill="#4D585A" transform="translate(292,123)"/>
<path d="M0 0 C0 0.33 0 0.66 0 1 C-5.88924716 1.85899926 -11.77914098 2.71336556 -17.66967773 3.56347656 C-19.67279129 3.85322392 -21.6757234 4.14422851 -23.6784668 4.43652344 C-26.55991398 4.85683873 -29.4419869 5.27260394 -32.32421875 5.6875 C-33.21711105 5.81874268 -34.11000336 5.94998535 -35.029953 6.08520508 C-35.87044693 6.20532959 -36.71094086 6.3254541 -37.5769043 6.44921875 C-38.31192673 6.55580811 -39.04694916 6.66239746 -39.804245 6.7722168 C-42.19122201 7.01983699 -44.60021354 7 -47 7 C-47 19.87 -47 32.74 -47 46 C-47.33 46 -47.66 46 -48 46 C-48 32.47 -48 18.94 -48 5 C-23.29097387 1.29364608 -23.29097387 1.29364608 -15.5625 0.25 C-14.59763672 0.11207031 -13.63277344 -0.02585938 -12.63867188 -0.16796875 C-11.70732422 -0.29300781 -10.77597656 -0.41804688 -9.81640625 -0.546875 C-9.00631104 -0.65870117 -8.19621582 -0.77052734 -7.36157227 -0.88574219 C-4.74742319 -1.0122202 -2.53678311 -0.60948136 0 0 Z " fill="#4E5253" transform="translate(378,44)"/>
<path d="M0 0 C0 10.23 0 20.46 0 31 C-0.33 31 -0.66 31 -1 31 C-1 21.1 -1 11.2 -1 1 C-5.62 1.66 -10.24 2.32 -15 3 C-15.33 12.57 -15.66 22.14 -16 32 C-16.33 32 -16.66 32 -17 32 C-17 22.43 -17 12.86 -17 3 C-23.435 3.495 -23.435 3.495 -30 4 C-30.66 3.34 -31.32 2.68 -32 2 C-28.54449819 1.45914279 -25.08538186 0.94611839 -21.625 0.4375 C-20.65949219 0.28603516 -19.69398438 0.13457031 -18.69921875 -0.02148438 C-17.73886719 -0.16005859 -16.77851563 -0.29863281 -15.7890625 -0.44140625 C-14.91975098 -0.57232666 -14.05043945 -0.70324707 -13.15478516 -0.83813477 C-8.76673769 -1.06327603 -4.37201374 -0.43720137 0 0 Z " fill="#737B7D" transform="translate(324,56)"/>
<path d="M0 0 C1.25018921 0.06670898 1.25018921 0.06670898 2.52563477 0.13476562 C11.22021523 0.64698295 19.89138699 1.44237359 28.5625 2.25 C29.62618805 2.34843201 29.62618805 2.34843201 30.71136475 2.44885254 C32.75454917 2.63941963 34.7972582 2.83437657 36.83984375 3.03125 C38.02698975 3.14533203 39.21413574 3.25941406 40.43725586 3.37695312 C43.21413528 3.70191841 45.89585402 4.1517255 48.625 4.75 C48.625 5.41 48.625 6.07 48.625 6.75 C35.68409109 5.77261954 22.7487468 4.72432958 9.8125 3.6875 C7.46289211 3.4993304 5.11328275 3.3111792 2.76367188 3.12304688 C-2.94923577 2.66557694 -8.66212514 2.20787921 -14.375 1.75 C-14.375 1.42 -14.375 1.09 -14.375 0.75 C-9.51297191 -0.26228345 -4.92838945 -0.28147656 0 0 Z " fill="#5A5955" transform="translate(365.375,198.25)"/>
<path d="M0 0 C0.33 0 0.66 0 1 0 C1 23.1 1 46.2 1 70 C0.67 70 0.34 70 0 70 C-0.144375 69.236875 -0.28875 68.47375 -0.4375 67.6875 C-0.9632594 64.91827092 -0.9632594 64.91827092 -2 62 C-2.02846561 59.06342162 -1.99747892 56.15634472 -1.9140625 53.22265625 C-1.89282318 52.34210068 -1.87158386 51.4615451 -1.84970093 50.55430603 C-1.80337274 48.67879931 -1.75443929 46.80335544 -1.703125 44.92797852 C-1.6269068 42.13243782 -1.55877155 39.33680044 -1.4921875 36.54101562 C-1.18827209 24.34914507 -0.66572971 12.17723706 0 0 Z " fill="#AC9480" transform="translate(178,80)"/>
<path d="M0 0 C2.97 0 5.94 0 9 0 C10.27583853 11.00410729 10.07094166 21.93310162 10 33 C3.07 32.67 -3.86 32.34 -11 32 C-11 31.67 -11 31.34 -11 31 C-4.78300769 29.61844615 0.25046997 30 7 30 C7.33 20.43 7.66 10.86 8 1 C5.36 1 2.72 1 0 1 C0 0.67 0 0.34 0 0 Z " fill="#717A7C" transform="translate(315,155)"/>
<path d="M0 0 C0 0.99 0 1.98 0 3 C-0.77601563 3.08564209 -1.55203125 3.17128418 -2.3515625 3.25952148 C-5.90110706 3.65159155 -9.45055401 4.04453868 -13 4.4375 C-14.83111328 4.63956055 -14.83111328 4.63956055 -16.69921875 4.84570312 C-22.80534368 5.52232778 -28.90675208 6.21549433 -35 7 C-35 6.34 -35 5.68 -35 5 C-35.66 4.67 -36.32 4.34 -37 4 C-32.85651953 3.42431458 -28.71223985 2.85488364 -24.56713867 2.29101562 C-23.15968137 2.09868625 -21.75244868 1.9047052 -20.34545898 1.70898438 C-18.31291852 1.42654699 -16.2796211 1.15023089 -14.24609375 0.875 C-13.02591553 0.70742188 -11.8057373 0.53984375 -10.54858398 0.3671875 C-7.00459404 0.00047536 -3.56010125 -0.06389413 0 0 Z " fill="#E0E2E1" transform="translate(326,52)"/>
<path d="M0 0 C4.16138263 -0.08159574 7.9472484 0.01751476 12 1 C12 1.33 12 1.66 12 2 C9.03 2 6.06 2 3 2 C3 24.44 3 46.88 3 70 C2.67 70 2.34 70 2 70 C1.98969254 69.15253204 1.97938507 68.30506409 1.96876526 67.43191528 C1.8709021 59.4563182 1.76840373 51.4807972 1.66066074 43.50532722 C1.60542983 39.4047835 1.55200956 35.30423265 1.50268555 31.20361328 C1.45504447 27.24838828 1.40270176 23.2932512 1.34705925 19.33813095 C1.32663453 17.82703711 1.30792164 16.31591916 1.29092598 14.80478287 C1.26688449 12.69284576 1.23682978 10.58107532 1.20532227 8.46923828 C1.18977798 7.26566681 1.1742337 6.06209534 1.15821838 4.822052 C1.18981223 2.04925367 1.18981223 2.04925367 0 0 Z " fill="#3F4443" transform="translate(126,68)"/>
<path d="M0 0 C1.43227909 0.11864155 2.86457111 0.23712705 4.296875 0.35546875 C5.02970703 0.42169434 5.76253906 0.48791992 6.51757812 0.55615234 C10.0912593 0.86646543 13.67024825 1.08540679 17.25 1.3125 C19.41668971 1.45799053 21.58336548 1.60368991 23.75 1.75 C23.42 2.74 23.09 3.73 22.75 4.75 C11.7397608 4.19831424 0.7424395 3.59281347 -10.25 2.75 C-7.54335948 -1.16856911 -4.26603714 -0.43298454 0 0 Z " fill="#E0E3E0" transform="translate(304.25,190.25)"/>
<path d="M0 0 C1.32 0.33 2.64 0.66 4 1 C3.01 1.495 3.01 1.495 2 2 C2 16.52 2 31.04 2 46 C1.67 46 1.34 46 1 46 C1 42.04 1 38.08 1 34 C-2.63 34 -6.26 34 -10 34 C-10 33.67 -10 33.34 -10 33 C-6.37 33 -2.74 33 1 33 C0.67 26.07 0.34 19.14 0 12 C-0.66 12 -1.32 12 -2 12 C-2.05422947 10.5629191 -2.09289723 9.12524538 -2.125 7.6875 C-2.14820313 6.88699219 -2.17140625 6.08648437 -2.1953125 5.26171875 C-2 3 -2 3 0 0 Z " fill="#323D41" transform="translate(323,121)"/>
<path d="M0 0 C2.00377361 0.05416625 4.00563754 0.18184111 6.00390625 0.33984375 C7.82631836 0.4800293 7.82631836 0.4800293 9.68554688 0.62304688 C11.60463867 0.77870117 11.60463867 0.77870117 13.5625 0.9375 C14.84576172 1.03740234 16.12902344 1.13730469 17.45117188 1.24023438 C20.63451809 1.48874839 23.81739258 1.74222363 27 2 C25.35613438 4.01399882 24.53536046 4.93233084 21.90625 5.26464844 C20.71515625 5.18778809 20.71515625 5.18778809 19.5 5.109375 C18.61723389 5.05966553 17.73446777 5.00995605 16.82495117 4.95874023 C15.42660034 4.85541382 15.42660034 4.85541382 14 4.75 C12.58328003 4.66310913 12.58328003 4.66310913 11.13793945 4.57446289 C4.75011543 4.16934919 -1.63713317 3.70036239 -8 3 C-8 2.67 -8 2.34 -8 2 C-6.865625 1.855625 -5.73125 1.71125 -4.5625 1.5625 C-1.19222799 1.38828522 -1.19222799 1.38828522 0 0 Z " fill="#DFE1DE" transform="translate(347,194)"/>
<path d="M0 0 C1.45922693 0.11409593 2.91740598 0.24165544 4.375 0.375 C5.59316406 0.47941406 5.59316406 0.47941406 6.8359375 0.5859375 C9 1 9 1 11 3 C13.32134177 3.4631331 13.32134177 3.4631331 16.0078125 3.6328125 C16.99394531 3.71660156 17.98007812 3.80039063 18.99609375 3.88671875 C20.54490234 4.00466797 20.54490234 4.00466797 22.125 4.125 C23.16527344 4.21136719 24.20554687 4.29773438 25.27734375 4.38671875 C27.85101589 4.59922379 30.42508017 4.80329156 33 5 C33 5.33 33 5.66 33 6 C22.07615772 7.45128246 11.86861804 6.3887041 1 5 C0.67 3.35 0.34 1.7 0 0 Z " fill="#615851" transform="translate(267,193)"/>
<path d="M0 0 C13.68476742 0.77499428 27.3399666 1.87745898 41 3 C37.18949376 5.54033749 34.43055397 5.07786055 30.0625 4.75 C29.28213379 4.6991626 28.50176758 4.6483252 27.69775391 4.59594727 C18.44518267 3.95780733 9.22027805 2.99132426 0 2 C0 1.34 0 0.68 0 0 Z " fill="#454D4E" transform="translate(331,191)"/>
<path d="M0 0 C-3.34472913 1.93543599 -6.38990168 2.52368153 -10.19921875 3.0703125 C-11.40900391 3.24433594 -12.61878906 3.41835938 -13.86523438 3.59765625 C-15.12658203 3.77167969 -16.38792969 3.94570313 -17.6875 4.125 C-18.92951172 4.30675781 -20.17152344 4.48851562 -21.45117188 4.67578125 C-28.03607487 5.60401877 -34.35106653 6.21610835 -41 6 C-35.87684427 3.0926947 -30.18334359 2.73927731 -24.4375 1.875 C-23.30763672 1.69324219 -22.17777344 1.51148438 -21.01367188 1.32421875 C-13.95063788 0.24260272 -7.14263963 -0.24346834 0 0 Z " fill="#504B46" transform="translate(361,36)"/>
<path d="M0 0 C-3.15995577 2.10663718 -5.08094076 2.56762348 -8.76953125 3.25390625 C-9.90583984 3.46853516 -11.04214844 3.68316406 -12.21289062 3.90429688 C-13.99469727 4.23010742 -13.99469727 4.23010742 -15.8125 4.5625 C-16.98876953 4.78357422 -18.16503906 5.00464844 -19.37695312 5.23242188 C-22.58287768 5.83228679 -25.78949456 6.42516615 -29 7 C-30.05533936 7.22937256 -31.11067871 7.45874512 -32.19799805 7.69506836 C-35 8 -35 8 -38 6 C-34.03723819 5.13363789 -30.07201146 4.27969109 -26.10424805 3.43652344 C-24.75848759 3.14880136 -23.41341076 2.85786019 -22.0690918 2.56347656 C-14.59930568 0.93006852 -7.65731876 -0.40345917 0 0 Z " fill="#525553" transform="translate(252,28)"/>
<path d="M0 0 C0.33 0 0.66 0 1 0 C1.33 9.24 1.66 18.48 2 28 C2.99 28 3.98 28 5 28 C5 29.32 5 30.64 5 32 C3.35 32 1.7 32 0 32 C-0.33 32.66 -0.66 33.32 -1 34 C-1.33 33.67 -1.66 33.34 -2 33 C-4.01594582 32.76572222 -6.038474 32.58663876 -8.0625 32.4375 C-9.16722656 32.35371094 -10.27195312 32.26992187 -11.41015625 32.18359375 C-12.26480469 32.12300781 -13.11945313 32.06242187 -14 32 C-14 31.67 -14 31.34 -14 31 C-9.38 31 -4.76 31 0 31 C0 20.77 0 10.54 0 0 Z " fill="#717A7D" transform="translate(323,89)"/>
<path d="M0 0 C0.86367188 -0.00386719 1.72734375 -0.00773438 2.6171875 -0.01171875 C7.51843463 -0.00427005 12.16818028 0.29781347 17 1.125 C17 1.455 17 1.785 17 2.125 C5.58447777 3.27683648 -5.60868344 3.6695853 -17 2.125 C-17 1.795 -17 1.465 -17 1.125 C-11.29776496 0.14880215 -5.7787685 -0.02587508 0 0 Z " fill="#D0A78D" transform="translate(286,193.875)"/>
<path d="M0 0 C0.33 0.66 0.66 1.32 1 2 C1.56396484 1.96447021 2.12792969 1.92894043 2.70898438 1.89233398 C5.30558579 1.73310341 7.90272038 1.58523852 10.5 1.4375 C11.386875 1.38142578 12.27375 1.32535156 13.1875 1.26757812 C18.62265235 0.96784546 23.62094863 1.1516683 29 2 C29 2.33 29 2.66 29 3 C26.36 3 23.72 3 21 3 C21 12.9 21 22.8 21 33 C20.67 33 20.34 33 20 33 C20 23.1 20 13.2 20 3 C17.07125 3.12375 14.1425 3.2475 11.125 3.375 C10.20348145 3.40899902 9.28196289 3.44299805 8.33251953 3.47802734 C7.24366455 3.53144287 7.24366455 3.53144287 6.1328125 3.5859375 C5.38918457 3.6173584 4.64555664 3.6487793 3.87939453 3.68115234 C1.75989026 3.85419551 1.75989026 3.85419551 0 6 C0 4.02 0 2.04 0 0 Z " fill="#2E393D" transform="translate(335,118)"/>
<path d="M0 0 C-2 3 -2 3 -3.99951172 3.6159668 C-4.80146973 3.72593994 -5.60342773 3.83591309 -6.4296875 3.94921875 C-7.30753906 4.07490234 -8.18539063 4.20058594 -9.08984375 4.33007812 C-10.00894531 4.44802734 -10.92804688 4.56597656 -11.875 4.6875 C-13.24205078 4.88182617 -13.24205078 4.88182617 -14.63671875 5.08007812 C-18.48700146 5.61280392 -22.10200304 6 -26 6 C-26 5.01 -26 4.02 -26 3 C-22.79279138 2.4926043 -19.58407837 1.995421 -16.375 1.5 C-15.47136719 1.35691406 -14.56773437 1.21382812 -13.63671875 1.06640625 C-9.04560134 0.36265833 -4.66168185 -0.18584778 0 0 Z " fill="#E6E9E7" transform="translate(362,47)"/>
<path d="M0 0 C0.33 0 0.66 0 1 0 C1 6.27 1 12.54 1 19 C3.97 19 6.94 19 10 19 C12.69907097 19.22458837 15.3171545 19.60976793 18 20 C17.67 20.66 17.34 21.32 17 22 C14.77090129 22.02714735 12.54170633 22.04646254 10.3125 22.0625 C9.07113281 22.07410156 7.82976562 22.08570313 6.55078125 22.09765625 C3.53764546 22.01478673 0.91724661 21.70839449 -2 21 C-1.505 19.515 -1.505 19.515 -1 18 C-0.85507877 16.59335074 -0.75371069 15.1818867 -0.68359375 13.76953125 C-0.64169922 12.96708984 -0.59980469 12.16464844 -0.55664062 11.33789062 C-0.51732422 10.50451172 -0.47800781 9.67113281 -0.4375 8.8125 C-0.39431641 7.96751953 -0.35113281 7.12253906 -0.30664062 6.25195312 C-0.20068482 4.16815567 -0.0998498 2.08409897 0 0 Z " fill="#F1F4F2" transform="translate(329,174)"/>
<path d="M0 0 C5.83218418 0.04703374 11.47165941 1.10429502 17.1875 2.1875 C17.1875 2.8475 17.1875 3.5075 17.1875 4.1875 C8.46967363 4.35061941 -0.12488511 3.84405389 -8.8125 3.1875 C-8.173125 2.878125 -7.53375 2.56875 -6.875 2.25 C-2.77198827 0.13632729 -2.77198827 0.13632729 0 0 Z " fill="#F9FBF5" transform="translate(394.8125,197.8125)"/>
<path d="M0 0 C10.84473786 2.03938654 21.46638364 4.714071 32 8 C32 8.33 32 8.66 32 9 C24.48739603 8.53084891 17.59572459 7.0150249 10.375 4.9375 C9.37082031 4.65583984 8.36664063 4.37417969 7.33203125 4.08398438 C4.88582382 3.39671657 2.442019 2.70197633 0 2 C0 1.34 0 0.68 0 0 Z " fill="#475756" transform="translate(109,10)"/>
<path d="M0 0 C0.33 0 0.66 0 1 0 C1 2.64 1 5.28 1 8 C4.3 8.33 7.6 8.66 11 9 C10.67 9.66 10.34 10.32 10 11 C-3.6332574 11.3690205 -3.6332574 11.3690205 -10 9 C-10 8.67 -10 8.34 -10 8 C-6.7 8 -3.4 8 0 8 C0 5.36 0 2.72 0 0 Z " fill="#F6F7F3" transform="translate(380,189)"/>
<path d="M0 0 C10.395 0.99 10.395 0.99 21 2 C21 2.66 21 3.32 21 4 C12.92905177 4.10466648 5.0125322 4.03387512 -3 3 C-2.01 2.67 -1.02 2.34 0 2 C0 1.34 0 0.68 0 0 Z " fill="#EFF1EE" transform="translate(392,193)"/>
<path d="M0 0 C0 0.33 0 0.66 0 1 C-3.74500154 1.89740738 -7.49648066 2.76397764 -11.25 3.625 C-12.31347656 3.88023437 -13.37695312 4.13546875 -14.47265625 4.3984375 C-15.49746094 4.63046875 -16.52226562 4.8625 -17.578125 5.1015625 C-18.52075195 5.32150879 -19.46337891 5.54145508 -20.43457031 5.76806641 C-23.3263238 6.02950206 -24.5830979 5.53667232 -27 4 C-23.62966739 3.12665908 -20.25320762 2.27981764 -16.875 1.4375 C-15.92367187 1.19064453 -14.97234375 0.94378906 -13.9921875 0.68945312 C-9.00403612 -0.54026475 -5.08411085 -1.42937123 0 0 Z " fill="#556261" transform="translate(211,231)"/>
<path d="M0 0 C0 0.99 0 1.98 0 3 C-5.61 3.66 -11.22 4.32 -17 5 C-17.33 4.01 -17.66 3.02 -18 2 C-15.7505194 1.66317938 -13.50039296 1.33066999 -11.25 1 C-9.99703125 0.814375 -8.7440625 0.62875 -7.453125 0.4375 C-4 0 -4 0 0 0 Z " fill="#DCE0DE" transform="translate(413,40)"/>
<path d="M0 0 C0.86431641 0.24363281 0.86431641 0.24363281 1.74609375 0.4921875 C8.22715029 1.95239088 15.11083481 0.85758528 21.6171875 0.0234375 C24 0 24 0 27 2 C24.18865636 2.36696071 21.37670145 2.71876381 18.5625 3.0625 C17.77939453 3.16626953 16.99628906 3.27003906 16.18945312 3.37695312 C10.57915129 4.04649532 5.59536926 3.80093874 0 3 C0 2.01 0 1.02 0 0 Z " fill="#58504B" transform="translate(277,49)"/>
<path d="M0 0 C1.25103516 0.13148438 1.25103516 0.13148438 2.52734375 0.265625 C3.39488281 0.36875 4.26242187 0.471875 5.15625 0.578125 C6.02378906 0.66578125 6.89132812 0.7534375 7.78515625 0.84375 C14.26059543 1.56435529 14.26059543 1.56435529 17.65625 3.828125 C12.0727756 5.21026374 7.33561583 4.37351353 1.78125 3.390625 C0.90210938 3.24302734 0.02296875 3.09542969 -0.8828125 2.94335938 C-3.03808513 2.58024279 -5.19143284 2.20830184 -7.34375 1.828125 C-4.09625953 -0.33686865 -3.64346631 -0.39026121 0 0 Z " fill="#5A5E5C" transform="translate(321.34375,247.171875)"/>
<path d="M0 0 C0 0.99 0 1.98 0 3 C-2.66673742 3.02727345 -5.33318869 3.04696948 -8 3.0625 C-9.11568359 3.07506836 -9.11568359 3.07506836 -10.25390625 3.08789062 C-15.26148844 3.10966272 -20.04279032 2.71541549 -25 2 C-25 1.67 -25 1.34 -25 1 C-16.64251778 0.15672251 -8.39802254 -0.12190678 0 0 Z " fill="#E1E5E2" transform="translate(326,187)"/>
<path d="M0 0 C0 0.66 0 1.32 0 2 C-2.51943396 2.50812114 -5.04016873 3.00664534 -7.5625 3.5 C-8.26697266 3.64308594 -8.97144531 3.78617188 -9.69726562 3.93359375 C-14.21890238 4.80874925 -18.39487028 5.14523405 -23 5 C-20.17536801 2.17536801 -16.98379783 2.03757736 -13.1875 1.375 C-12.47529297 1.2409375 -11.76308594 1.106875 -11.02929688 0.96875 C-7.3134352 0.29501375 -3.77729125 -0.1632621 0 0 Z " fill="#515555" transform="translate(309,16)"/>
<path d="M0 0 C0.33 0.66 0.66 1.32 1 2 C-2.08113762 2.39476516 -5.16493504 2.76231457 -8.25 3.125 C-9.12269531 3.23714844 -9.99539063 3.34929688 -10.89453125 3.46484375 C-12.16103516 3.60986328 -12.16103516 3.60986328 -13.453125 3.7578125 C-14.22817383 3.8520752 -15.00322266 3.94633789 -15.80175781 4.04345703 C-18.35546289 3.99297286 -19.82233985 3.28837662 -22 2 C-19.45887768 1.66198848 -16.91723254 1.32946621 -14.375 1 C-13.66214844 0.90460937 -12.94929688 0.80921875 -12.21484375 0.7109375 C-8.11178391 0.18393899 -4.14754258 -0.10466984 0 0 Z " fill="#565554" transform="translate(326,50)"/>
<path d="M0 0 C0 0.33 0 0.66 0 1 C-3.102091 1.39373209 -6.20670709 1.76172314 -9.3125 2.125 C-10.19357422 2.23714844 -11.07464844 2.34929688 -11.98242188 2.46484375 C-13.25375977 2.60986328 -13.25375977 2.60986328 -14.55078125 2.7578125 C-15.33106689 2.8520752 -16.11135254 2.94633789 -16.9152832 3.04345703 C-19 3 -19 3 -22 1 C-14.35767685 -0.42924436 -7.69565547 -1.30434839 0 0 Z " fill="#58534F" transform="translate(380,34)"/>
<path d="M0 0 C0 0.33 0 0.66 0 1 C1.65 1.33 3.3 1.66 5 2 C5 2.33 5 2.66 5 3 C-1.58183362 3.8931507 -7.42150508 3.95494281 -14 3 C-13.67 2.34 -13.34 1.68 -13 1 C-8.65012229 -0.03568517 -4.45537928 -0.08910759 0 0 Z " fill="#C49D84" transform="translate(357,38)"/>
<path d="M0 0 C5.28 0.33 10.56 0.66 16 1 C16 1.33 16 1.66 16 2 C14.865625 2.309375 13.73125 2.61875 12.5625 2.9375 C9.21224901 3.62924531 9.21224901 3.62924531 8 5 C6.00041636 5.04080783 3.99954746 5.04254356 2 5 C2.66 4.01 3.32 3.02 4 2 C2.68 1.34 1.36 0.68 0 0 Z " fill="#B89680" transform="translate(305,195)"/>
<path d="M0 0 C0.99 0.66 1.98 1.32 3 2 C-3.6 2 -10.2 2 -17 2 C-17 1.67 -17 1.34 -17 1 C-11.37089241 -1.58634673 -5.95560891 -1.1593336 0 0 Z " fill="#E6E9E5" transform="translate(364,191)"/>
<path d="M0 0 C0.68835938 0.05220703 1.37671875 0.10441406 2.0859375 0.15820312 C3.76612758 0.28655098 5.44564749 0.42362225 7.125 0.5625 C3.95016555 2.6790563 3.45800995 2.79179149 -0.10546875 2.5390625 C-0.90791016 2.4875 -1.71035156 2.4359375 -2.53710938 2.3828125 C-3.78717773 2.28613281 -3.78717773 2.28613281 -5.0625 2.1875 C-6.3299707 2.10242188 -6.3299707 2.10242188 -7.62304688 2.015625 C-9.70771217 1.87429176 -11.79146866 1.7196675 -13.875 1.5625 C-13.875 1.2325 -13.875 0.9025 -13.875 0.5625 C-9.1460653 -0.43190216 -4.78229882 -0.40315891 0 0 Z " fill="#5A6160" transform="translate(364.875,193.4375)"/>
<path d="M0 0 C-0.33 0.66 -0.66 1.32 -1 2 C-3.72265625 2.4140625 -3.72265625 2.4140625 -7.0625 2.625 C-8.16722656 2.69976562 -9.27195312 2.77453125 -10.41015625 2.8515625 C-11.26480469 2.90054688 -12.11945313 2.94953125 -13 3 C-13 2.01 -13 1.02 -13 0 C-8.37078475 -1.0161692 -4.65537393 -0.83796731 0 0 Z " fill="#BB9A84" transform="translate(374,42)"/>
<path d="M0 0 C0.74507813 0.05671875 1.49015625 0.1134375 2.2578125 0.171875 C4.08935108 0.31276258 5.91981352 0.46751884 7.75 0.625 C1.57760241 4.15009388 -5.49887363 2.77412789 -12.25 1.625 C-8.37328894 -1.04789025 -4.45732397 -0.39375653 0 0 Z " fill="#5E6768" transform="translate(347.25,187.375)"/>
<path d="M0 0 C1.21236328 0.01353516 1.21236328 0.01353516 2.44921875 0.02734375 C3.37154297 0.04474609 3.37154297 0.04474609 4.3125 0.0625 C3.3225 1.5475 3.3225 1.5475 2.3125 3.0625 C-0.7265625 3.35546875 -0.7265625 3.35546875 -4.3125 3.25 C-5.50101562 3.22292969 -6.68953125 3.19585937 -7.9140625 3.16796875 C-8.82929688 3.13316406 -9.74453125 3.09835938 -10.6875 3.0625 C-6.91890928 0.55010618 -4.42510751 -0.06413199 0 0 Z " fill="#D2A98E" transform="translate(321.6875,42.9375)"/>
<path d="M0 0 C2.2421875 0.171875 2.2421875 0.171875 4.875 0.75 C6.17050781 1.02070313 6.17050781 1.02070313 7.4921875 1.296875 C9.86497785 1.96214332 11.84556125 2.81756385 14 4 C9.89517207 5.13314263 7.24049263 4.78328091 3.1875 3.5625 C1.72376953 3.13130859 1.72376953 3.13130859 0.23046875 2.69140625 C-0.50558594 2.46324219 -1.24164063 2.23507813 -2 2 C-1.34 1.34 -0.68 0.68 0 0 Z " fill="#576563" transform="translate(141,18)"/>
<path d="M0 0 C0.98484375 0.10183594 1.9696875 0.20367187 2.984375 0.30859375 C3.73203125 0.39238281 4.4796875 0.47617187 5.25 0.5625 C5.25 0.8925 5.25 1.2225 5.25 1.5625 C-0.79829486 2.45854368 -6.6394576 2.67519443 -12.75 2.5625 C-8.23220677 -0.44936215 -5.35322997 -0.57356035 0 0 Z " fill="#575E61" transform="translate(349.75,51.4375)"/>
<path d="M0 0 C1.85625 0.061875 1.85625 0.061875 3.75 0.125 C4.08 0.785 4.41 1.445 4.75 2.125 C4.09 2.125 3.43 2.125 2.75 2.125 C2.75 2.785 2.75 3.445 2.75 4.125 C-0.88 3.465 -4.51 2.805 -8.25 2.125 C-4.63863788 0.31931894 -3.705469 -0.12351563 0 0 Z " fill="#CDAB93" transform="translate(379.25,39.875)"/>
<path d="M0 0 C0 0.33 0 0.66 0 1 C-6.08251096 2.70366626 -10.77104914 3.13253652 -17 2 C-17 1.67 -17 1.34 -17 1 C-10.97767819 -0.46619907 -6.09632423 -1.32528788 0 0 Z " fill="#6A6A67" transform="translate(265,26)"/>
<path d="M0 0 C2.6015625 -0.29296875 2.6015625 -0.29296875 5.625 -0.1875 C7.12933594 -0.14689453 7.12933594 -0.14689453 8.6640625 -0.10546875 C9.43492187 -0.07066406 10.20578125 -0.03585938 11 0 C10 2 10 2 8.4375 2.625 C4.93601819 3.16368951 1.54193167 3.05903219 -2 3 C-1.34 2.01 -0.68 1.02 0 0 Z " fill="#EBF0EE" transform="translate(363,46)"/>
<path d="M0 0 C0.33 0.99 0.66 1.98 1 3 C-2.96 3 -6.92 3 -11 3 C-6.577168 -0.317124 -5.28089024 -0.30466674 0 0 Z " fill="#CEA68C" transform="translate(302,46)"/>
<path d="M0 0 C-2 3 -2 3 -3.9453125 3.51171875 C-4.66460937 3.56972656 -5.38390625 3.62773438 -6.125 3.6875 C-8.043125 3.8421875 -8.043125 3.8421875 -10 4 C-10.66 3.01 -11.32 2.02 -12 1 C-7.93631321 0.22596442 -4.13574827 -0.0984702 0 0 Z " fill="#D9DCDC" transform="translate(362,47)"/>
<path d="M0 0 C0 0.99 0 1.98 0 3 C-4.455 3.495 -4.455 3.495 -9 4 C-8.67 3.34 -8.34 2.68 -8 2 C-8.66 1.34 -9.32 0.68 -10 0 C-6.33694766 -0.74926071 -3.57644848 -1.2380014 0 0 Z " fill="#B79680" transform="translate(333,42)"/>
<path d="M0 0 C1.65 0 3.3 0 5 0 C5 0.66 5 1.32 5 2 C4.01 2.33 3.02 2.66 2 3 C1.67 7.95 1.34 12.9 1 18 C0.67 18 0.34 18 0 18 C0 12.06 0 6.12 0 0 Z " fill="#CBB4A1" transform="translate(284,53)"/>
<path d="M0 0 C-3.92074329 2.61382886 -7.44511017 2.29386386 -12 2 C-12.66 1.34 -13.32 0.68 -14 0 C-9.02936879 -0.91297308 -4.97063121 -0.91297308 0 0 Z " fill="#5B6264" transform="translate(321,56)"/>
<path d="M0 0 C0.66 0 1.32 0 2 0 C3.06723961 3.46222615 3.10173486 6.64039266 3.0625 10.25 C3.05347656 11.32765625 3.04445313 12.4053125 3.03515625 13.515625 C3.02355469 14.33546875 3.01195312 15.1553125 3 16 C2.67 16 2.34 16 2 16 C2 12.7 2 9.4 2 6 C1.34 6 0.68 6 0 6 C0 4.02 0 2.04 0 0 Z " fill="#3C484E" transform="translate(383,117)"/>
<path d="M0 0 C0 0.66 0 1.32 0 2 C-1.41433206 2.2236337 -2.83167618 2.42826476 -4.25 2.625 C-5.03890625 2.74101563 -5.8278125 2.85703125 -6.640625 2.9765625 C-9.32152459 3.00319395 -10.72694089 2.36592084 -13 1 C-8.62426048 0.40667939 -4.42471556 -0.13827236 0 0 Z " fill="#5E6767" transform="translate(413,43)"/>
<path d="M0 0 C0 0.66 0 1.32 0 2 C-4.29 1.67 -8.58 1.34 -13 1 C-13 0.67 -13 0.34 -13 0 C-8.38926889 -1.29676812 -4.66159911 -0.71109139 0 0 Z " fill="#636665" transform="translate(413,262)"/>
<path d="M0 0 C3.96 0 7.92 0 12 0 C12 0.33 12 0.66 12 1 C7.49646738 2.75747614 3.82360189 3.19294408 -1 3 C-0.67 2.01 -0.34 1.02 0 0 Z " fill="#C9CCCB" transform="translate(364,191)"/>
<path d="M0 0 C1.35158203 0.15275391 1.35158203 0.15275391 2.73046875 0.30859375 C3.41753906 0.39238281 4.10460937 0.47617187 4.8125 0.5625 C4.8125 0.8925 4.8125 1.2225 4.8125 1.5625 C-1.1275 2.0575 -1.1275 2.0575 -7.1875 2.5625 C-7.5175 1.9025 -7.8475 1.2425 -8.1875 0.5625 C-4.98734144 -0.50421952 -3.30205706 -0.38595472 0 0 Z " fill="#646666" transform="translate(390.1875,41.4375)"/>
<path d="M0 0 C-2.79526798 1.86351199 -3.84045627 2.34308907 -7 2.75 C-7.680625 2.84796875 -8.36125 2.9459375 -9.0625 3.046875 C-11 3 -11 3 -14 1 C-9.32798795 -0.20568053 -4.78503708 -0.09382426 0 0 Z " fill="#555755" transform="translate(252,28)"/>
<path d="M0 0 C0.90105469 0.11085937 1.80210937 0.22171875 2.73046875 0.3359375 C3.76107422 0.47902344 3.76107422 0.47902344 4.8125 0.625 C1.36035147 2.92643236 0.57770676 2.76333854 -3.375 2.25 C-4.72658203 2.08371094 -4.72658203 2.08371094 -6.10546875 1.9140625 C-6.79253906 1.81867188 -7.47960937 1.72328125 -8.1875 1.625 C-4.73535147 -0.67643236 -3.95270676 -0.51333854 0 0 Z " fill="#5F6563" transform="translate(322.1875,247.375)"/>
<path d="M0 0 C2.31 0 4.62 0 7 0 C7 0.99 7 1.98 7 3 C4.69 3 2.38 3 0 3 C0 2.01 0 1.02 0 0 Z " fill="#D3D8D6" transform="translate(319,52)"/>
<path d="M0 0 C5.94 1.485 5.94 1.485 12 3 C8.90521121 4.03159626 7.47368607 3.97482862 4.3125 3.5625 C3.10013672 3.40974609 3.10013672 3.40974609 1.86328125 3.25390625 C1.24839844 3.17011719 0.63351562 3.08632813 0 3 C0 2.01 0 1.02 0 0 Z " fill="#605953" transform="translate(277,49)"/>
<path d="M0 0 C1.23556641 0.01740234 1.23556641 0.01740234 2.49609375 0.03515625 C3.32238281 0.04417969 4.14867187 0.05320313 5 0.0625 C5.63808594 0.07410156 6.27617187 0.08570313 6.93359375 0.09765625 C6.93359375 0.42765625 6.93359375 0.75765625 6.93359375 1.09765625 C4.95359375 1.42765625 2.97359375 1.75765625 0.93359375 2.09765625 C0.93359375 2.42765625 0.93359375 2.75765625 0.93359375 3.09765625 C-1.70640625 3.09765625 -4.34640625 3.09765625 -7.06640625 3.09765625 C-6.42703125 2.78828125 -5.78765625 2.47890625 -5.12890625 2.16015625 C-1.03016727 0.04868465 -1.03016727 0.04868465 0 0 Z " fill="#D3D7D2" transform="translate(393.06640625,197.90234375)"/>
<path d="M0 0 C0 0.99 0 1.98 0 3 C-2.64 3 -5.28 3 -8 3 C-8 2.34 -8 1.68 -8 1 C-5.10765685 0.17361624 -3.11257569 0 0 0 Z " fill="#F3F2EF" transform="translate(413,40)"/>
<path d="M0 0 C2.3828125 0.2421875 2.3828125 0.2421875 5.125 0.875 C6.03507813 1.07867188 6.94515625 1.28234375 7.8828125 1.4921875 C8.58148438 1.65976562 9.28015625 1.82734375 10 2 C7.75700222 3.36398513 6.50929167 4.05762059 3.859375 3.7578125 C1.90625 3.171875 -0.046875 2.5859375 -2 2 C-1.34 1.34 -0.68 0.68 0 0 Z " fill="#556462" transform="translate(172,26)"/>
<path d="M0 0 C-0.33 0.66 -0.66 1.32 -1 2 C-4.63 1.67 -8.26 1.34 -12 1 C-12 0.67 -12 0.34 -12 0 C-7.74433453 -1.16063604 -4.3164922 -0.76173392 0 0 Z " fill="#626A69" transform="translate(288,242)"/>
<path d="M0 0 C2.97 0.495 2.97 0.495 6 1 C6 1.66 6 2.32 6 3 C2.37 3 -1.26 3 -5 3 C-5 2.67 -5 2.34 -5 2 C-3.35 2 -1.7 2 0 2 C0 1.34 0 0.68 0 0 Z " fill="#ECEEE9" transform="translate(406,199)"/>
<path d="M0 0 C0.33 0.99 0.66 1.98 1 3 C-2.96 2.67 -6.92 2.34 -11 2 C-11 1.67 -11 1.34 -11 1 C-7.26513121 0.4254048 -3.78706732 0 0 0 Z " fill="#B99A87" transform="translate(408,36)"/>
<path d="M0 0 C2.97 0.33 5.94 0.66 9 1 C9 1.33 9 1.66 9 2 C5.7 2.33 2.4 2.66 -1 3 C-0.67 2.01 -0.34 1.02 0 0 Z " fill="#686159" transform="translate(371,33)"/>
<path d="M0 0 C-0.33 0.99 -0.66 1.98 -1 3 C-3.97 3 -6.94 3 -10 3 C-6.48579734 1.24289867 -3.89581553 0 0 0 Z " fill="#D2AC92" transform="translate(385,0)"/>
</svg>
