<?xml version="1.0" standalone="no"?> <!DOCTYPE svg PUBLIC "-//W3C//DTD SVG 20010904//EN" "http://www.w3.org/TR/2001/REC-SVG-20010904/DTD/svg10.dtd"> <svg version="1.0" xmlns="http://www.w3.org/2000/svg" width="768.000000pt" height="768.000000pt" viewBox="0 0 768.000000 768.000000" preserveAspectRatio="xMidYMid meet"> <g transform="translate(0.000000,768.000000) scale(0.100000,-0.100000)" fill="#ffffff" stroke="none"> <path d="M3069 5744 c-31 -33 -140 -105 -204 -134 -27 -12 -61 -28 -75 -34 -24 -12 -68 -26 -191 -60 -31 -9 -74 -16 -97 -16 -35 0 -42 -4 -46 -22 -12 -61 -15 -237 -5 -358 l11 -135 40 -37 c37 -37 58 -47 58 -30 0 4 -5 13 -11 19 -17 17 -30 134 -36 315 l-4 158 57 25 c31 14 71 25 88 25 18 0 41 7 52 15 10 8 31 15 47 15 15 0 35 4 45 10 9 5 40 19 67 30 28 11 57 25 65 30 8 6 22 13 30 17 8 4 20 11 25 15 52 42 107 78 120 78 14 0 44 -19 120 -77 9 -7 89 -46 180 -89 17 -7 46 -16 65 -19 19 -4 39 -10 44 -16 6 -5 28 -9 49 -9 21 0 51 -6 65 -14 15 -8 35 -17 45 -20 18 -6 20 -27 18 -176 l-1 -75 35 40 35 40 -2 120 -3 120 -55 6 c-30 4 -68 12 -83 18 -16 6 -40 11 -55 11 -15 0 -40 7 -56 15 -15 8 -35 15 -43 15 -8 0 -27 6 -41 14 -15 7 -49 24 -77 36 -71 33 -151 85 -191 125 -41 42 -53 43 -85 9z"/> <path d="M2670 5148 c0 -150 2 -166 23 -202 45 -81 167 -110 266 -65 82 37 86 48 86 249 l0 175 -37 3 -38 3 0 -145 c0 -79 -4 -156 -10 -170 -10 -28 -64 -66 -93 -66 -35 0 -82 30 -100 63 -13 25 -17 63 -19 172 l-3 140 -37 3 -38 3 0 -163z"/> <path d="M3155 5301 c-8 -8 -5 -51 5 -69 20 -36 50 -112 50 -126 0 -8 4 -17 9 -20 4 -3 16 -27 26 -53 27 -73 67 -157 78 -164 6 -4 25 -7 43 -7 27 0 34 4 34 19 0 11 7 22 15 25 8 4 15 13 15 22 0 14 26 79 51 124 5 10 9 25 9 34 0 9 6 28 13 42 8 15 22 45 31 67 10 22 24 53 32 69 20 39 7 51 -43 39 -31 -7 -39 -14 -41 -35 -2 -15 -10 -32 -18 -38 -8 -7 -14 -19 -14 -27 0 -14 -14 -49 -45 -118 -8 -16 -17 -42 -21 -57 -13 -58 -49 -25 -83 77 -13 39 -30 79 -37 90 -8 11 -14 29 -14 40 -1 32 -36 70 -65 70 -14 1 -28 -1 -30 -4z"/> <path d="M5395 5299 c-143 -5 -296 -13 -340 -20 -44 -6 -129 -15 -190 -19 -149 -12 -363 -38 -376 -45 -5 -4 -34 -11 -62 -15 -144 -23 -193 -33 -202 -41 -5 -5 -22 -9 -37 -9 -30 0 -39 25 -17 47 17 17 3 43 -21 43 -24 0 -68 -44 -111 -110 -9 -14 -29 -38 -44 -55 -15 -16 -78 -93 -140 -170 -62 -77 -127 -155 -144 -174 -17 -19 -31 -37 -31 -40 0 -3 -14 -22 -30 -41 -16 -19 -33 -40 -37 -45 -32 -43 -118 -147 -150 -183 -13 -14 -23 -28 -23 -31 0 -3 -13 -20 -28 -37 -15 -18 -45 -53 -67 -79 -57 -68 -65 -70 -110 -29 -21 19 -41 34 -44 34 -3 0 -24 16 -46 36 -22 19 -65 51 -95 71 -30 20 -59 41 -65 48 -13 15 -212 165 -219 165 -3 0 -19 14 -34 30 -16 17 -34 30 -40 30 -6 0 -15 6 -19 13 -4 7 -39 37 -78 65 -131 96 -184 137 -217 165 -49 41 -116 79 -128 72 -12 -7 -13 -45 -2 -61 4 -6 14 -15 23 -20 9 -5 32 -21 50 -37 19 -15 72 -55 119 -90 47 -34 98 -73 112 -86 15 -13 50 -40 78 -60 58 -42 211 -159 321 -246 100 -79 134 -105 178 -135 20 -14 47 -35 61 -48 14 -13 40 -32 58 -43 17 -11 32 -25 32 -30 0 -15 25 -10 40 9 9 9 37 45 63 79 26 34 53 68 60 75 6 7 30 36 52 63 22 28 48 59 57 69 10 11 30 38 45 60 16 23 42 57 59 76 40 43 146 176 325 403 33 43 68 81 77 84 10 3 31 11 49 19 17 8 44 14 61 14 16 0 43 7 58 15 16 8 43 15 59 15 17 1 41 7 55 15 14 8 47 14 73 15 27 0 57 5 69 11 11 6 54 13 96 16 43 3 102 12 132 19 30 8 95 14 145 14 49 0 106 5 125 10 68 21 746 48 763 31 6 -6 21 -11 33 -11 29 0 91 -72 105 -122 11 -41 -1 -190 -21 -258 -5 -19 -10 -53 -10 -75 0 -22 -6 -78 -14 -125 -23 -133 -37 -228 -46 -313 -4 -43 -13 -106 -19 -140 -32 -192 -32 -193 -70 -487 -6 -47 -14 -92 -17 -100 -6 -15 -29 -175 -41 -283 -7 -65 -2 -62 -118 -71 -38 -3 -100 -8 -137 -12 -82 -8 -84 -6 -63 96 9 41 20 106 24 143 5 38 13 73 20 80 6 6 11 29 11 51 0 23 6 52 13 66 8 15 17 55 20 90 4 35 12 69 17 74 6 6 10 26 10 46 0 19 5 51 11 70 12 39 35 148 49 229 5 29 13 65 18 80 6 14 13 50 16 80 3 30 10 59 16 65 5 5 10 26 10 46 1 19 7 53 15 75 8 22 15 54 15 71 0 18 6 54 14 80 13 45 28 113 43 202 3 22 -1 45 -13 70 -49 94 -115 115 -286 92 -40 -5 -152 -14 -248 -20 -177 -10 -412 -34 -440 -44 -8 -3 -55 -10 -105 -16 -130 -14 -248 -35 -265 -45 -8 -5 -35 -12 -60 -16 -100 -15 -164 -33 -184 -53 -12 -12 -60 -68 -106 -126 -47 -58 -87 -107 -91 -110 -3 -3 -31 -37 -60 -76 -59 -78 -169 -216 -179 -224 -3 -3 -28 -34 -55 -70 -26 -36 -53 -69 -59 -75 -6 -5 -29 -32 -51 -60 -22 -27 -44 -55 -50 -61 -5 -6 -17 -22 -25 -34 -21 -31 -52 -60 -64 -60 -9 0 -150 101 -221 157 -26 21 -65 49 -85 63 -13 8 -37 27 -54 41 -17 14 -56 43 -86 64 -30 21 -60 43 -67 49 -42 37 -161 126 -169 126 -4 0 -14 7 -23 15 -9 8 -45 37 -81 65 -36 27 -70 53 -75 58 -6 5 -35 26 -65 47 -30 21 -57 42 -60 46 -10 15 -67 22 -74 10 -17 -27 10 -54 164 -166 41 -30 194 -146 230 -175 14 -11 49 -37 78 -56 86 -58 85 -61 -52 -154 -62 -42 -92 -64 -123 -90 -7 -6 -34 -25 -60 -42 -53 -36 -210 -151 -233 -172 -8 -7 -28 -22 -45 -32 -25 -16 -142 -99 -210 -150 -11 -8 -49 -35 -85 -61 -84 -60 -153 -131 -178 -185 -46 -96 -52 -287 -11 -362 21 -40 54 -76 68 -76 5 0 17 -8 27 -17 15 -16 38 -17 203 -15 102 2 202 7 221 12 19 5 112 12 205 15 94 3 202 10 240 16 39 5 153 14 255 19 397 19 578 31 660 41 47 6 146 13 220 15 74 2 171 9 215 15 44 6 168 14 275 19 306 14 539 29 615 40 39 6 149 12 245 15 96 3 223 10 281 17 129 14 143 10 134 -34 -4 -18 -13 -46 -21 -62 -8 -16 -14 -37 -14 -46 0 -17 -16 -77 -45 -170 -8 -25 -19 -108 -25 -185 -6 -77 -13 -147 -15 -155 -2 -8 -5 -124 -7 -258 l-3 -243 -27 -27 c-43 -44 -79 -75 -148 -127 -36 -27 -67 -52 -70 -55 -9 -10 -93 -63 -120 -76 -8 -4 -17 -10 -20 -14 -21 -26 -365 -200 -396 -200 -11 0 -24 -4 -30 -9 -5 -5 -43 -18 -84 -30 -41 -12 -86 -27 -100 -33 -25 -11 -45 -16 -148 -37 -48 -10 -112 -55 -112 -80 0 -12 99 -2 143 15 20 8 50 14 65 14 15 1 38 7 52 15 14 8 39 14 57 15 17 0 34 4 37 9 3 5 21 12 40 15 20 4 48 13 63 21 15 8 33 15 40 15 6 0 24 6 40 14 15 8 44 21 63 29 213 92 475 259 649 413 71 64 73 71 81 414 4 190 11 316 18 333 7 16 12 52 12 81 0 30 7 73 15 96 8 23 15 57 15 74 0 18 7 41 15 52 8 10 15 28 15 39 0 11 6 32 14 46 7 14 16 43 20 64 4 20 11 45 16 54 37 73 41 96 70 348 5 46 14 91 20 102 5 11 10 46 10 78 1 32 5 78 11 103 6 25 14 78 19 118 5 40 13 94 19 120 12 53 29 189 40 307 4 44 11 86 15 94 8 13 23 117 46 318 5 46 14 92 20 103 6 12 11 79 11 159 1 170 -15 210 -103 267 -33 21 -139 46 -178 42 -8 0 -132 -5 -275 -9z m-818 -425 c3 -9 2 -19 -4 -23 -8 -5 -57 -67 -118 -151 -73 -100 -415 -548 -427 -560 -8 -8 -30 -36 -49 -62 -83 -116 -454 -604 -462 -609 -5 -3 -16 -17 -25 -31 -9 -14 -43 -59 -75 -100 l-57 -75 -118 -6 c-64 -3 -121 -1 -125 3 -8 7 313 444 480 655 78 98 44 53 278 365 109 146 202 270 207 275 4 6 27 35 51 65 23 30 57 75 74 100 17 25 40 56 52 69 12 13 21 28 21 32 0 15 42 31 99 40 31 5 76 12 101 17 69 14 90 13 97 -4z m-2233 -1146 c-3 -40 -12 -98 -20 -128 -8 -30 -18 -95 -24 -145 -6 -49 -15 -126 -20 -171 -5 -45 -14 -93 -20 -108 -5 -15 -10 -49 -10 -75 0 -80 0 -80 -210 -87 l-185 -7 -34 33 c-52 53 -77 137 -60 206 6 21 14 55 19 74 23 89 50 121 200 232 401 297 373 284 364 176z m2806 10 c0 -18 -7 -51 -15 -73 -8 -22 -15 -58 -15 -80 -1 -53 -38 -125 -75 -147 -38 -22 -165 -36 -165 -19 0 7 54 84 120 173 66 88 120 164 120 169 0 5 7 9 15 9 10 0 15 -10 15 -32z"/> <path d="M3894 5247 c-16 -19 -40 -47 -54 -63 -14 -16 -43 -51 -64 -79 -22 -27 -42 -52 -46 -55 -3 -3 -27 -32 -52 -65 -26 -33 -63 -78 -82 -99 -20 -22 -36 -42 -36 -45 0 -3 -14 -22 -30 -41 -16 -19 -41 -48 -55 -65 -14 -16 -48 -59 -76 -95 -29 -36 -55 -67 -58 -70 -4 -3 -17 -22 -30 -43 -38 -62 -56 -59 -168 26 -54 41 -109 85 -123 97 -75 67 -140 89 -140 47 0 -25 23 -48 105 -110 28 -20 55 -40 60 -45 97 -77 213 -162 221 -162 12 0 58 49 94 100 14 19 41 52 59 73 19 21 46 55 60 75 15 20 31 42 37 47 6 6 62 73 123 150 111 139 175 217 199 241 6 7 12 16 12 21 0 5 14 24 32 43 17 19 44 53 60 74 26 37 27 40 12 58 -23 24 -27 23 -60 -15z"/> <path d="M3192 4738 c-7 -7 -12 -29 -12 -49 0 -29 6 -40 26 -54 25 -16 28 -16 53 2 29 22 40 75 20 99 -14 17 -70 19 -87 2z"/> <path d="M2423 4276 c-40 -28 -98 -69 -130 -91 -74 -51 -215 -152 -228 -163 -13 -10 -133 -94 -154 -107 -9 -5 -30 -21 -48 -35 -17 -14 -70 -52 -118 -85 -148 -103 -220 -176 -268 -274 l-41 -86 -1 -140 c0 -83 5 -152 12 -170 6 -16 21 -64 33 -105 13 -41 29 -89 36 -107 8 -17 14 -37 14 -45 0 -7 7 -22 15 -32 8 -11 15 -26 15 -34 0 -7 7 -20 15 -28 8 -9 15 -26 15 -38 0 -13 7 -29 15 -36 8 -7 15 -19 15 -26 0 -8 14 -36 30 -62 17 -27 30 -54 30 -61 0 -6 4 -11 9 -11 5 0 14 -12 20 -27 19 -46 67 -120 166 -253 67 -91 191 -222 340 -361 80 -74 188 -159 204 -159 5 0 14 -6 18 -13 8 -12 134 -97 163 -110 8 -4 42 -23 75 -42 33 -19 77 -42 98 -51 20 -9 54 -25 74 -35 21 -11 45 -19 54 -19 9 0 22 -7 29 -15 7 -8 22 -15 34 -15 12 0 31 -6 42 -14 11 -8 37 -17 57 -21 21 -4 40 -11 43 -16 3 -5 17 -9 32 -9 15 0 40 -7 56 -15 15 -8 41 -15 57 -15 16 0 46 -6 66 -14 48 -18 143 -27 143 -13 0 20 -69 77 -94 77 -34 0 -114 19 -151 36 -16 7 -47 16 -68 20 -20 3 -40 10 -43 15 -3 5 -15 9 -27 9 -12 0 -35 7 -51 15 -15 8 -33 15 -38 15 -11 0 -75 27 -98 41 -8 5 -26 14 -40 19 -52 21 -164 81 -225 121 -16 10 -37 22 -45 26 -8 3 -31 19 -51 35 -20 15 -40 28 -44 28 -8 0 -83 56 -100 74 -5 6 -42 37 -82 68 -77 62 -204 186 -268 262 -22 27 -48 55 -57 64 -10 9 -18 22 -18 29 0 7 -4 13 -9 13 -5 0 -40 46 -78 103 -37 56 -71 104 -74 107 -3 3 -9 12 -12 20 -4 8 -18 33 -31 55 -13 22 -41 74 -61 115 -20 41 -43 87 -51 102 -7 14 -14 33 -14 41 0 8 -7 20 -15 27 -8 7 -15 25 -15 41 0 15 -4 30 -9 34 -5 3 -12 19 -16 36 -4 17 -13 42 -21 57 -8 15 -14 36 -14 47 0 12 -5 26 -12 33 -26 26 -38 202 -20 295 11 56 60 144 116 206 23 26 131 111 141 111 6 0 23 13 53 41 9 9 56 41 103 72 48 31 93 62 100 69 8 7 41 31 74 53 33 22 103 72 155 110 52 39 129 93 170 120 41 27 81 55 88 62 7 7 18 13 23 13 17 0 9 26 -13 47 l-23 20 -72 -51z"/> <path d="M3817 2763 c-6 -10 -10 -48 -8 -90 1 -26 5 -33 21 -33 19 0 21 5 18 62 -3 55 -17 84 -31 61z"/> <path d="M4995 2760 c-33 -5 -141 -11 -240 -15 -245 -10 -284 -28 -285 -133 0 -57 15 -82 65 -108 31 -16 149 -18 210 -4 22 5 133 12 248 16 155 5 210 10 218 21 6 7 20 13 30 13 12 0 19 7 19 20 0 11 7 23 15 26 19 8 20 66 0 103 -8 16 -30 38 -50 50 -39 23 -111 26 -230 11z m205 -80 c46 -46 8 -90 -77 -90 -32 0 -130 -7 -218 -15 -197 -18 -337 -19 -353 -3 -7 7 -12 23 -12 38 0 51 10 54 157 62 76 4 167 11 203 16 36 5 113 10 173 11 95 1 109 -1 127 -19z"/> <path d="M3557 2653 c-4 -3 -7 -10 -7 -15 0 -12 67 -78 80 -78 21 0 9 47 -18 73 -28 27 -43 33 -55 20z"/> <path d="M4045 2633 c-24 -27 -34 -73 -16 -73 14 0 67 52 74 72 3 10 0 19 -9 22 -22 8 -20 9 -49 -21z"/> <path d="M3795 2562 c-45 -4 -114 -46 -131 -81 -7 -12 -17 -28 -23 -34 -17 -17 -14 -117 3 -117 19 0 31 20 28 43 -5 25 33 81 78 117 29 23 48 30 82 30 39 0 51 -6 97 -47 43 -40 53 -56 59 -93 5 -31 13 -46 25 -48 14 -3 17 5 17 48 0 41 -7 61 -32 101 -18 27 -37 49 -42 49 -5 0 -17 6 -25 14 -18 15 -78 24 -136 18z"/> <path d="M4140 2411 c-22 -4 -35 -12 -35 -21 0 -11 14 -16 58 -18 51 -3 57 -1 57 16 0 18 -21 34 -38 31 -4 -1 -23 -4 -42 -8z"/> <path d="M3442 2388 c3 -21 8 -23 53 -20 89 6 88 42 -1 42 -52 0 -55 -2 -52 -22z"/> <path d="M3785 2314 c-123 -67 -216 -100 -345 -124 -36 -6 -69 -15 -73 -20 -5 -4 -9 -100 -9 -212 0 -211 9 -272 50 -358 69 -144 187 -264 335 -343 76 -40 113 -43 147 -12 9 8 22 15 28 15 23 0 144 92 204 156 65 68 118 144 118 168 0 7 6 19 14 25 7 6 17 30 20 53 4 23 11 47 16 53 9 11 19 450 10 458 -3 3 -43 12 -90 20 -119 22 -269 75 -320 113 -28 22 -74 25 -105 8z m84 -78 c7 -8 23 -17 36 -20 14 -4 25 -11 25 -16 0 -6 8 -10 18 -10 9 0 30 -7 46 -15 15 -8 40 -15 55 -15 15 0 36 -7 47 -15 10 -8 38 -15 62 -15 79 0 82 -5 82 -138 0 -168 -16 -284 -46 -348 -14 -30 -31 -60 -37 -67 -7 -6 -25 -31 -41 -55 -33 -48 -137 -148 -170 -163 -33 -15 -67 -36 -79 -48 -16 -16 -62 -14 -76 3 -7 8 -23 17 -36 20 -14 4 -25 11 -25 16 0 6 -5 10 -11 10 -17 0 -91 61 -134 110 -22 25 -42 47 -45 50 -27 26 -73 116 -93 180 -31 107 -46 385 -20 411 5 5 35 14 64 18 30 4 64 13 76 19 12 7 33 12 47 12 13 0 37 6 53 14 15 8 55 28 88 45 67 33 97 38 114 17z"/> <path d="M3840 1775 c0 -413 -2 -401 61 -345 19 16 38 30 43 30 14 0 114 108 121 130 4 11 10 20 15 20 5 0 11 14 15 30 4 17 11 30 16 30 5 0 9 10 9 23 0 12 7 35 15 50 10 20 15 69 17 165 l3 137 -30 3 c-30 3 -130 34 -163 51 -40 20 -110 51 -116 51 -3 0 -6 -169 -6 -375z"/> </g> </svg>