<?xml version="1.0" standalone="no"?> <!DOCTYPE svg PUBLIC "-//W3C//DTD SVG 20010904//EN" "http://www.w3.org/TR/2001/REC-SVG-20010904/DTD/svg10.dtd"> <svg version="1.0" xmlns="http://www.w3.org/2000/svg" width="256.000000pt" height="256.000000pt" viewBox="0 0 256.000000 256.000000" preserveAspectRatio="xMidYMid meet"> <g transform="translate(0.000000,256.000000) scale(0.100000,-0.100000)" fill="#ba1c1c" stroke="none"> <path d="M1008 1906 c-31 -28 -127 -66 -163 -66 -25 0 -25 -1 -25 -88 0 -55 4 -92 12 -100 21 -21 26 -13 17 26 -5 20 -9 58 -9 84 l0 46 68 21 c38 11 81 30 97 42 l27 22 57 -31 c31 -16 73 -33 94 -37 44 -9 51 -17 49 -63 -1 -29 1 -32 14 -21 10 8 14 26 12 52 -3 39 -4 40 -55 53 -61 16 -124 46 -142 68 -17 21 -21 20 -53 -8z"/> <path d="M890 1715 c0 -42 5 -60 20 -75 24 -24 57 -26 88 -4 19 13 22 24 22 75 0 46 -3 59 -15 59 -12 0 -15 -13 -15 -55 0 -42 -4 -57 -16 -62 -31 -12 -49 11 -52 66 -2 36 -7 51 -18 51 -10 0 -14 -14 -14 -55z"/> <path d="M1050 1767 c0 -22 59 -141 71 -142 11 -2 25 20 46 71 27 64 28 74 14 74 -11 0 -23 -17 -35 -51 -20 -55 -28 -54 -49 6 -8 22 -21 41 -30 43 -10 2 -17 2 -17 -1z"/> <path d="M1600 1755 c-100 -11 -152 -20 -194 -32 -14 -4 -18 -1 -13 11 11 29 -18 17 -43 -16 -13 -18 -73 -94 -134 -168 -60 -74 -111 -137 -113 -139 -2 -2 -75 51 -164 118 -163 124 -189 141 -189 123 0 -6 46 -45 103 -88 56 -43 136 -104 177 -136 41 -32 77 -54 81 -50 3 4 59 73 123 154 112 141 119 148 169 162 75 22 161 34 335 47 168 12 195 9 216 -24 13 -20 10 -55 -29 -320 -24 -164 -45 -300 -47 -302 -2 -2 -27 -7 -57 -11 -50 -6 -53 -6 -47 13 20 63 115 545 109 558 -3 9 -16 20 -28 25 -38 14 -363 -19 -470 -48 -22 -6 -61 -47 -152 -158 -66 -82 -126 -148 -133 -146 -6 1 -83 56 -171 122 -87 66 -164 120 -169 120 -25 0 -3 -23 80 -85 49 -37 90 -68 90 -70 0 -2 -70 -53 -155 -115 -191 -138 -205 -154 -205 -226 0 -64 23 -94 70 -94 31 0 1027 65 1156 75 l71 6 -18 -68 c-11 -40 -22 -121 -26 -196 l-6 -128 -46 -40 c-55 -47 -224 -132 -299 -150 -51 -12 -92 -39 -61 -39 32 0 165 43 222 71 66 33 174 107 196 133 8 10 16 66 21 153 6 102 15 159 34 218 23 74 106 601 106 675 0 19 -9 40 -25 55 -23 24 -29 25 -142 24 -65 -1 -165 -7 -223 -14z m-84 -147 c-9 -13 -100 -134 -204 -270 l-187 -248 -43 0 -44 0 29 38 c15 21 105 140 198 264 173 230 175 232 243 237 22 1 22 0 8 -21z m-730 -355 c-2 -10 -12 -69 -22 -131 l-17 -113 -71 3 c-67 3 -71 5 -80 30 -6 18 -6 40 2 67 10 33 27 50 95 100 88 65 101 71 93 44z m925 -51 c-13 -46 -32 -65 -61 -60 -19 3 -18 7 22 61 46 62 55 62 39 -1z"/> <path d="M1200 1630 c-58 -71 -109 -130 -114 -130 -4 0 -31 18 -58 40 -28 22 -55 40 -59 40 -23 0 -3 -24 58 -70 53 -40 69 -48 78 -38 49 54 215 268 215 277 0 25 -20 5 -120 -119z"/> <path d="M1067 1584 c-14 -15 -6 -34 14 -34 14 0 19 5 17 17 -3 18 -20 27 -31 17z"/> <path d="M730 1373 c-229 -162 -250 -185 -250 -271 0 -75 53 -208 123 -312 117 -172 329 -312 522 -346 34 -6 38 -5 28 7 -7 8 -36 21 -65 28 -29 8 -86 29 -126 47 -220 100 -390 299 -449 525 -16 64 -16 66 5 110 19 38 45 61 177 154 85 61 155 113 155 117 0 21 -25 9 -120 -59z"/> <path d="M1602 921 c-95 -6 -111 -14 -112 -53 0 -29 32 -37 131 -32 123 7 136 10 144 35 9 26 -20 60 -49 57 -12 -1 -63 -4 -114 -7z m138 -35 c0 -16 -62 -26 -156 -26 -49 0 -64 3 -64 14 0 16 33 21 153 24 51 2 67 -1 67 -12z"/> <path d="M1270 900 c0 -11 5 -20 10 -20 6 0 10 9 10 20 0 11 -4 20 -10 20 -5 0 -10 -9 -10 -20z"/> <path d="M1190 882 c0 -12 19 -26 26 -19 2 2 -2 10 -11 17 -9 8 -15 8 -15 2z"/> <path d="M1346 874 c-4 -10 -1 -14 6 -12 15 5 23 28 10 28 -5 0 -13 -7 -16 -16z"/> <path d="M1232 837 c-22 -23 -30 -57 -13 -57 5 0 12 11 15 25 12 46 96 41 96 -5 0 -11 5 -20 10 -20 17 0 11 35 -10 58 -27 29 -71 28 -98 -1z"/> <path d="M1150 800 c0 -5 9 -10 20 -10 11 0 20 5 20 10 0 6 -9 10 -20 10 -11 0 -20 -4 -20 -10z"/> <path d="M1370 800 c0 -5 9 -10 20 -10 11 0 20 5 20 10 0 6 -9 10 -20 10 -11 0 -20 -4 -20 -10z"/> <path d="M1246 765 c-10 -8 -43 -19 -73 -26 l-55 -11 4 -88 c3 -75 8 -94 31 -129 30 -45 100 -101 127 -101 27 0 97 56 127 101 23 35 28 54 31 127 l4 87 -66 19 c-37 10 -69 23 -72 27 -8 13 -37 10 -58 -6z m70 -30 c16 -8 46 -18 68 -22 l39 -6 -7 -71 c-5 -50 -14 -82 -31 -108 -27 -41 -84 -88 -107 -88 -20 0 -96 66 -113 100 -8 16 -18 60 -21 98 l-7 70 39 7 c22 3 50 13 64 20 32 18 42 18 76 0z"/> <path d="M1280 596 c0 -69 3 -126 6 -126 3 0 19 9 34 20 38 27 70 96 70 151 0 44 -1 45 -42 57 -24 7 -49 15 -55 18 -10 4 -13 -23 -13 -120z"/> </g> </svg>